<?xml version="1.0" standalone="no"?>
<!DOCTYPE svg PUBLIC "-//W3C//DTD SVG 20010904//EN"
 "http://www.w3.org/TR/2001/REC-SVG-20010904/DTD/svg10.dtd">
<svg version="1.0" xmlns="http://www.w3.org/2000/svg"
 width="851.000000pt" height="315.000000pt" viewBox="0 0 851.000000 315.000000"
 preserveAspectRatio="xMidYMid meet">
<metadata>
Created by potrace 1.14, written by Peter Selinger 2001-2017
</metadata>
<g transform="translate(0.000000,315.000000) scale(0.100000,-0.100000)"
fill="#000000" stroke="none">
<path d="M0 1879 c0 -698 4 -1268 8 -1265 28 17 231 29 527 33 187 1 349 3
360 2 117 -5 322 -4 330 2 10 7 470 4 525 -4 16 -3 24 -10 24 -21 -1 -9 5 -16
14 -16 13 0 13 -2 0 -17 -9 -11 -14 -33 -12 -58 1 -22 -2 -45 -8 -52 -8 -10
-6 -13 6 -13 12 0 15 -8 12 -31 -2 -19 1 -32 10 -36 8 -3 14 -16 14 -30 0 -15
4 -22 11 -17 8 4 9 0 4 -15 -3 -11 -2 -21 3 -21 11 0 24 -34 26 -65 1 -14 8
-20 23 -19 20 0 20 -1 6 -23 -10 -16 -12 -23 -4 -23 7 0 9 -5 6 -11 -4 -6 2
-13 14 -16 28 -7 55 -65 47 -99 -13 -50 0 -64 58 -64 l53 0 -39 41 c-43 46
-44 67 0 27 15 -13 51 -34 81 -46 l54 -22 1268 0 c1202 0 1269 1 1269 18 0 9
-5 35 -10 57 -27 120 -54 380 -110 1080 -6 66 -13 154 -17 195 -4 41 -8 79 -8
84 0 5 10 12 22 17 37 13 53 -36 64 -186 4 -71 11 -155 13 -185 3 -30 8 -89
11 -130 3 -41 10 -120 15 -175 6 -55 15 -152 20 -215 10 -105 49 -401 68 -510
l8 -45 87 -3 c48 -1 87 1 87 5 0 4 -13 82 -29 173 -38 217 -85 560 -96 700 -3
41 -10 102 -16 135 -6 33 -14 101 -19 150 -5 50 -14 119 -20 155 -12 70 -29
197 -30 218 0 6 6 12 14 12 8 0 22 8 31 17 16 16 16 17 -4 25 -27 9 -38 37
-21 48 11 7 10 12 -3 25 -10 9 -14 21 -11 26 3 6 -2 17 -12 24 -13 10 -15 14
-5 15 8 0 1 13 -18 32 -23 23 -28 34 -19 40 10 6 10 8 0 8 -7 0 -11 4 -8 9 4
5 1 11 -6 13 -21 7 3 28 26 22 12 -3 35 0 51 7 28 10 28 12 10 20 -16 6 -13 8
15 8 19 0 48 3 64 7 l29 7 -23 -23 c-14 -14 -19 -25 -12 -28 7 -2 8 -11 2 -28
-8 -19 -6 -24 6 -24 10 0 6 -8 -13 -24 -41 -35 -21 -43 31 -12 49 28 56 31 56
17 0 -5 -9 -13 -20 -16 -25 -8 -26 -22 -2 -28 13 -4 13 -5 -4 -6 -12 0 -27 -7
-33 -15 -9 -11 -7 -15 10 -19 32 -8 8 -43 -38 -55 l-38 -11 44 4 c24 2 48 8
54 14 6 6 17 11 25 11 12 0 12 -3 2 -15 -10 -12 -9 -15 4 -15 10 0 26 5 37 11
11 5 28 9 37 7 9 -2 -10 -12 -43 -22 -33 -11 -54 -21 -47 -24 15 -5 90 24 112
42 8 7 38 19 65 26 69 18 76 24 35 31 l-35 6 35 2 c19 1 46 10 60 21 14 11 31
20 38 20 6 0 12 7 12 15 0 10 10 15 29 15 17 0 33 5 36 10 3 6 15 10 26 10 30
0 104 80 124 135 26 70 64 135 80 135 11 0 95 -119 95 -135 0 -12 72 -104 86
-109 9 -3 30 -6 48 -6 17 0 40 -6 51 -14 20 -14 27 -16 44 -16 5 0 13 -9 16
-20 3 -11 13 -20 21 -20 8 0 14 -7 14 -15 0 -8 7 -15 15 -15 8 0 15 -4 15 -10
0 -5 11 -10 24 -10 29 0 169 -50 162 -58 -3 -2 -18 0 -33 6 -48 19 -150 42
-176 40 -20 -2 -23 -5 -15 -18 6 -9 18 -16 28 -17 26 -2 250 -88 295 -113 22
-13 57 -34 77 -47 29 -20 57 -27 135 -34 54 -4 112 -8 130 -9 l32 0 -49 -72
c-125 -185 -160 -228 -185 -228 -13 0 -27 -4 -30 -10 -10 -17 -22 -11 -28 12
-35 154 -73 234 -136 291 l-41 37 32 -1 c18 0 59 -4 91 -8 39 -5 56 -4 54 3
-10 29 -214 116 -286 121 l-46 4 40 -15 c53 -20 68 -36 17 -18 -23 7 -61 16
-84 19 l-43 6 55 -30 c59 -32 62 -38 12 -20 -23 8 -36 8 -49 -1 -17 -11 -17
-11 2 -5 11 3 16 3 12 -1 -4 -4 -1 -14 6 -23 8 -10 -2 -7 -27 7 -46 27 -58 21
-26 -13 13 -14 19 -25 13 -25 -5 0 -18 9 -29 21 -11 13 -26 18 -39 15 -11 -3
-37 1 -57 8 -36 12 -37 13 -20 30 16 17 16 17 -3 15 -26 -4 -65 10 -83 28 -14
13 -13 48 3 108 4 15 -1 23 -20 32 -23 10 -29 9 -43 -8 -9 -10 -25 -19 -36
-19 -11 0 -27 -7 -37 -16 -16 -14 -21 -14 -62 5 -25 12 -48 21 -51 21 -16 0
-2 -32 34 -83 36 -50 39 -57 24 -71 -8 -9 -21 -16 -27 -17 -45 -2 -71 -12
-120 -43 -30 -19 -57 -41 -59 -48 -3 -9 -6 -9 -12 0 -4 7 -2 12 3 12 6 0 11 5
11 10 0 22 -33 8 -67 -28 l-36 -37 26 37 c32 43 33 48 10 48 -10 0 -38 -19
-63 -41 -25 -22 -39 -38 -33 -34 7 3 24 -6 37 -20 29 -31 39 -27 66 23 10 20
19 33 20 27 0 -5 -9 -25 -21 -44 -27 -44 -19 -64 9 -20 12 19 22 30 22 24 -1
-5 -7 -18 -15 -28 -16 -22 -9 -51 11 -43 8 3 15 -1 15 -9 3 -28 4 -33 12 -41
4 -4 7 -16 7 -27 0 -19 89 -114 103 -109 4 1 7 -7 7 -17 0 -11 5 -23 12 -27 7
-4 8 -3 4 4 -13 22 3 31 34 20 31 -10 41 -40 18 -54 -7 -5 -5 -11 7 -21 11 -7
14 -13 8 -13 -7 0 -14 4 -17 9 -3 5 -16 11 -28 14 -21 5 -21 4 5 -16 15 -13
27 -30 27 -38 0 -9 3 -19 8 -23 4 -4 8 -34 8 -66 1 -66 13 -95 25 -64 6 16 8
15 8 -8 1 -15 -6 -32 -16 -38 -13 -8 -14 -13 -5 -16 6 -3 9 -10 6 -15 -3 -6 0
-16 6 -24 9 -11 9 -15 1 -15 -6 0 -11 -7 -11 -15 0 -8 3 -15 8 -15 4 0 7 -17
7 -38 0 -20 4 -40 10 -44 5 -4 2 -14 -8 -26 -21 -23 -23 -39 -1 -18 19 20 35
21 28 2 -3 -8 3 -19 16 -26 11 -6 20 -19 19 -28 -1 -9 0 -19 1 -22 3 -6 12
-77 14 -107 0 -13 4 -23 7 -23 11 0 20 33 11 39 -5 3 -8 22 -7 41 1 19 0 40
-4 45 -3 6 -6 19 -7 30 -1 11 -5 40 -8 65 -4 25 -9 75 -10 112 -2 56 -1 66 10
57 8 -6 11 -16 8 -21 -4 -6 -1 -14 7 -18 8 -6 18 -1 28 13 11 15 12 22 3 25
-9 3 -10 15 -6 39 6 29 3 35 -15 40 -18 4 -31 23 -16 23 12 0 55 -24 55 -32 0
-4 4 -8 9 -8 5 0 11 19 13 41 3 38 1 44 -27 60 -16 10 -38 16 -47 13 -13 -4
-16 -1 -12 9 3 10 -3 18 -16 22 -17 5 -21 13 -17 31 2 13 0 24 -5 24 -18 0 -2
23 21 31 19 8 21 6 16 -11 -10 -30 12 -24 31 10 10 16 23 31 30 34 14 5 34
-15 38 -36 4 -26 49 -97 59 -91 5 3 6 -3 3 -14 -4 -13 1 -26 14 -38 12 -11 20
-13 20 -6 0 6 -7 14 -15 17 -8 4 -15 10 -15 15 0 15 38 10 52 -6 7 -9 22 -26
33 -38 19 -21 50 -66 89 -130 17 -28 17 -28 -3 -17 -12 6 -21 8 -21 4 0 -3 -7
-1 -15 6 -13 11 -14 10 -9 -4 4 -10 12 -15 19 -12 7 2 21 -15 33 -42 27 -61
37 -96 25 -89 -6 4 -19 0 -29 -8 -16 -12 -17 -17 -7 -34 11 -17 10 -19 -3 -14
-13 5 -14 3 -6 -13 15 -29 11 -77 -7 -91 -13 -10 -14 -15 -3 -32 15 -25 15
-34 2 -26 -5 3 -11 -4 -11 -17 -3 -48 -4 -53 -21 -52 -14 1 -18 -6 -18 -28 0
-17 -9 -45 -19 -62 -27 -44 -54 -143 -47 -172 4 -14 2 -24 -4 -24 -6 0 -8 -4
-5 -10 3 -5 1 -10 -5 -10 -7 0 -5 -6 4 -15 12 -13 68 -15 378 -15 l364 0 62
84 c52 72 132 210 132 229 0 3 27 66 61 139 71 156 108 250 107 275 0 10 38
92 86 183 47 91 86 170 86 176 0 6 -9 19 -19 28 -24 22 -18 48 25 105 19 24
34 48 34 53 0 5 5 6 11 2 24 -14 79 -14 79 1 0 8 -4 17 -10 20 -15 9 -12 35 4
35 8 0 24 14 36 31 13 17 28 28 36 25 7 -3 16 -1 19 4 4 6 75 7 183 3 199 -7
219 -2 265 59 35 47 47 91 47 168 0 76 -20 143 -53 179 -30 32 -94 61 -138 61
-19 0 -40 5 -46 11 -7 7 -15 2 -27 -16 -20 -30 -36 -25 -36 13 -1 29 0 29 -40
-27 -21 -31 -50 -27 -50 7 l-1 27 -13 -30 c-8 -16 -21 -39 -30 -50 -16 -19
-16 -18 -3 10 8 17 18 41 22 55 l7 25 -23 -22 c-29 -26 -95 -26 -115 1 -13 19
-34 14 -34 -7 -1 -7 -7 -25 -15 -42 l-14 -30 6 42 c3 23 3 50 -1 59 -5 14 -9
12 -27 -10 -21 -26 -22 -26 -47 -10 -24 15 -66 17 -452 15 -283 -2 -435 1
-453 8 l-28 11 20 26 c12 15 21 35 21 44 0 10 11 25 25 34 14 9 25 23 25 30 0
14 29 30 38 21 3 -3 0 -5 -7 -5 -7 0 -10 -4 -7 -9 7 -10 56 -2 56 10 0 5 -5 9
-12 9 -6 0 -4 6 7 13 10 8 15 18 12 23 -3 5 3 21 13 34 17 23 26 25 130 28
109 4 223 -10 247 -30 21 -17 73 -20 146 -7 40 7 79 13 87 14 8 1 23 5 33 9 9
5 23 6 31 3 7 -3 19 0 25 6 6 6 11 7 11 2 0 -6 4 -5 8 2 4 6 28 13 54 16 26 3
52 8 58 12 5 3 10 -2 10 -12 1 -15 3 -15 21 6 11 13 22 21 26 17 4 -3 17 1 31
10 13 8 26 13 29 10 4 -3 12 -1 20 5 10 9 13 7 13 -10 0 -24 10 -27 29 -8 11
10 13 9 8 -5 -5 -14 -1 -18 16 -18 24 0 52 -34 41 -52 -5 -7 2 -9 20 -4 16 4
25 3 22 -2 -3 -6 3 -12 14 -15 11 -3 23 -1 26 5 3 5 12 7 20 4 7 -3 25 1 39 8
39 20 266 21 330 1 62 -19 306 -35 505 -33 l150 1 0 529 0 528 -1150 0 c-1138
0 -1150 0 -1167 -20 -10 -11 -23 -20 -30 -20 -6 0 -15 -5 -19 -11 -4 -8 1 -9
17 -5 13 3 3 -4 -23 -17 -51 -24 -64 -43 -22 -33 33 9 116 -3 108 -15 -3 -5
-17 -9 -32 -10 -15 0 -21 -3 -14 -6 6 -2 12 -9 12 -15 0 -6 8 -17 18 -25 9 -8
-1 -5 -23 8 -22 12 -44 26 -50 31 -15 13 -25 9 -19 -7 5 -11 2 -13 -12 -8 -11
4 -15 3 -11 -4 4 -6 19 -14 34 -18 29 -7 83 -52 83 -69 0 -6 -4 -6 -11 1 -6 6
-19 8 -30 6 -18 -5 -18 -7 -5 -22 8 -9 16 -25 18 -36 1 -11 11 -29 21 -39 25
-29 21 -36 -15 -25 -18 5 -42 9 -52 9 -19 0 -19 -1 -2 -13 17 -13 13 -17 -49
-45 -37 -18 -71 -32 -76 -32 -5 0 -9 -5 -9 -11 0 -8 23 -10 70 -7 74 4 76 1
18 -30 -35 -18 -44 -37 -12 -25 8 3 14 0 14 -6 0 -6 -7 -11 -16 -11 -8 0 -12
-4 -9 -10 3 -5 -2 -10 -12 -10 -10 0 0 -9 22 -19 l40 -18 -27 -6 c-28 -7 -78
-51 -78 -68 0 -6 8 -5 21 1 11 7 18 14 15 17 -7 7 13 33 25 33 5 0 4 -9 -3
-20 -17 -27 -6 -33 36 -22 25 7 38 7 43 -1 3 -6 2 -12 -4 -14 -19 -7 -94 -65
-89 -70 3 -3 21 5 41 17 27 17 39 20 44 11 12 -19 33 -5 81 54 24 29 46 52 48
50 12 -11 3 -117 -10 -133 -9 -9 -14 -21 -12 -27 3 -12 -43 -50 -73 -59 -18
-6 -23 -3 -23 10 0 13 -4 11 -20 -9 -26 -32 -26 -45 0 -22 11 10 20 16 21 14
0 -2 2 -12 4 -21 2 -9 -3 -22 -11 -29 -11 -9 -22 -4 -53 24 -22 20 -59 41 -82
47 -58 16 -186 0 -313 -39 -54 -17 -102 -31 -106 -31 -8 0 -5 64 5 139 8 52
26 76 44 58 10 -9 11 9 7 83 -4 52 -7 110 -8 128 -1 17 -4 32 -8 32 -4 0 -7
14 -8 31 0 17 -2 33 -5 35 -10 10 -47 -40 -47 -63 0 -34 21 -103 32 -103 14 0
9 -38 -7 -44 -8 -3 -15 -14 -15 -25 0 -11 -5 -21 -11 -23 -7 -2 -12 -18 -13
-36 0 -18 -4 -32 -8 -32 -13 0 -21 22 -20 54 0 17 -3 35 -8 41 -5 6 -11 33
-14 61 -3 27 -12 67 -21 89 l-16 40 4 -52 c3 -42 2 -49 -9 -38 -7 7 -16 24
-19 38 -4 14 -14 28 -22 31 -13 5 -15 -4 -12 -61 1 -38 2 -92 1 -122 -2 -45
-4 -52 -16 -42 -8 7 -17 23 -20 37 -4 14 -10 23 -15 20 -11 -7 -37 27 -43 58
-4 18 -1 29 8 33 8 3 14 9 14 14 0 4 -7 6 -15 3 -8 -4 -15 -2 -15 4 0 6 6 12
12 14 9 3 8 9 -5 22 -9 10 -17 23 -17 29 0 7 -4 6 -10 -3 -5 -8 -5 -17 0 -20
11 -7 13 -117 5 -182 -6 -39 -4 -49 9 -54 11 -4 22 1 31 12 13 18 14 18 15 2
0 -10 4 -18 8 -18 12 0 31 -58 25 -79 -3 -10 2 -32 11 -47 13 -25 15 -26 16
-8 0 25 18 44 36 37 8 -3 14 1 14 8 0 8 11 -3 26 -24 14 -21 29 -35 35 -32 7
5 29 -32 29 -49 0 -2 -17 -6 -37 -9 -23 -4 -67 1 -116 14 -43 11 -104 22 -135
24 -32 2 -95 7 -141 11 -98 7 -146 -4 -190 -45 -23 -21 -44 -30 -88 -35 -32
-3 -92 -10 -133 -15 -77 -9 -104 -3 -94 23 3 8 -4 16 -15 19 -12 3 -24 13 -28
24 -3 10 -10 20 -14 23 -4 3 -10 46 -13 95 -3 50 -3 84 0 78 11 -25 31 -14 28
15 -5 42 6 74 23 67 11 -4 13 -1 9 11 -10 27 22 -4 40 -37 l14 -28 -34 4 c-24
3 -36 0 -40 -10 -9 -24 4 -44 48 -75 23 -15 53 -45 67 -64 25 -38 36 -40 53
-13 8 12 7 23 -2 38 -16 24 -11 23 52 -23 62 -45 63 -33 2 29 -54 55 -55 57
-38 76 16 19 16 20 0 14 -10 -4 -18 -2 -18 3 0 6 5 10 10 10 6 0 10 6 10 14 0
17 24 27 48 20 14 -5 15 -4 2 5 -13 9 -13 11 1 11 9 0 26 9 38 19 21 18 21 20
4 30 -16 9 -15 10 10 11 15 0 27 6 27 13 0 10 -15 13 -55 11 -30 -1 -55 2 -55
7 0 5 -14 9 -31 9 -17 0 -28 4 -24 10 3 6 25 8 48 5 39 -5 38 -4 -23 20 -35
14 -70 23 -77 21 -26 -10 -12 11 24 37 31 22 34 27 19 33 -9 4 -22 2 -29 -5
-15 -15 -30 -14 -21 2 6 10 4 10 -7 0 -19 -18 -29 -16 -23 5 4 12 0 11 -15 -7
l-21 -23 6 33 c3 19 15 46 25 61 10 15 19 32 19 37 0 5 14 12 30 16 17 4 30
11 30 16 0 6 -9 5 -21 -1 -11 -7 -27 -9 -35 -6 -8 3 -13 2 -10 -3 3 -5 -5 -11
-19 -13 -27 -6 -32 1 -14 19 8 8 5 13 -10 18 -19 6 -20 8 -5 22 8 9 33 17 55
18 49 3 58 11 33 30 -24 18 -35 19 -28 2 2 -7 -3 -13 -13 -13 -10 0 -29 -4
-42 -8 -15 -5 -21 -5 -17 2 3 6 2 13 -4 17 -6 4 -8 11 -4 16 3 5 10 6 16 3 7
-5 9 -1 5 9 -3 9 -3 16 1 16 21 -3 24 3 6 17 -18 14 -16 15 26 10 l45 -5 -33
15 c-18 8 -30 19 -26 25 9 15 -36 59 -61 59 -11 0 -26 -5 -33 -12 -9 -9 -12
-9 -12 0 0 9 -509 12 -2260 12 l-2260 0 0 -1271z m2372 633 c-2 -7 -1 -12 4
-11 23 4 25 -3 10 -26 -15 -23 -15 -28 -1 -59 9 -19 17 -48 17 -65 1 -23 5
-30 15 -26 12 4 13 -2 8 -28 -9 -46 -26 -87 -36 -87 -5 0 -11 12 -14 28 -18
82 -27 117 -46 167 -18 48 -24 55 -55 61 -19 3 -47 1 -63 -5 -15 -7 -32 -11
-37 -9 -5 1 -19 -3 -31 -10 -25 -14 -31 -4 -11 16 9 9 8 12 -4 12 -9 0 -19 4
-22 9 -7 10 87 7 105 -4 8 -5 9 -1 4 14 -7 23 4 28 23 9 9 -9 12 -9 12 0 0 7
-4 12 -10 12 -17 0 -11 19 10 30 17 9 22 7 30 -15 5 -13 17 -36 26 -50 22 -34
44 -16 44 35 0 20 3 40 7 44 9 9 22 -25 15 -42z m-242 -134 c0 -37 38 -103 71
-122 21 -12 41 -16 61 -12 35 7 68 -15 68 -46 0 -10 5 -18 10 -18 6 0 10 -9
10 -20 0 -11 4 -20 10 -20 5 0 14 -17 19 -38 6 -20 26 -52 47 -71 l36 -34 -25
-13 c-13 -8 -27 -20 -31 -29 -3 -9 -18 -15 -39 -15 -18 0 -38 -5 -45 -12 -9
-9 -12 -9 -12 -1 0 7 -16 17 -35 24 -19 7 -35 17 -35 21 0 4 -10 8 -22 8 -21
0 -21 0 -2 15 19 14 19 15 -3 21 -26 7 -31 24 -8 24 8 0 15 5 15 11 0 6 -8 8
-17 5 -10 -3 -25 -1 -33 4 -11 7 -8 10 15 10 18 0 25 3 18 8 -22 14 17 78 55
92 31 11 32 13 15 25 -10 7 -29 16 -43 20 -14 4 -40 20 -59 34 -19 14 -37 25
-40 25 -13 -3 -30 9 -25 17 3 5 -3 9 -12 9 -10 0 -15 3 -11 6 3 4 -3 14 -15
23 -20 17 -20 17 12 44 38 33 50 34 50 5z m-1109 -207 c29 -30 39 -49 39 -73
0 -22 7 -37 20 -46 13 -8 20 -23 20 -42 0 -28 -3 -30 -27 -27 -19 2 -33 -3
-45 -17 -14 -17 -20 -19 -35 -10 -11 7 -17 22 -16 38 1 14 -2 26 -8 26 -5 0
-9 -13 -9 -30 0 -36 -18 -39 -47 -7 -31 34 -35 57 -17 85 14 21 14 26 2 33 -8
4 -25 31 -38 59 -23 49 -23 53 -7 65 31 23 123 -6 168 -54z m2512 42 c21 -2
44 1 52 7 9 8 14 7 18 -4 5 -11 17 -14 47 -11 38 3 43 0 90 -49 56 -60 95
-113 105 -147 4 -13 11 -29 16 -35 5 -6 6 -26 3 -45 -3 -19 -6 -44 -6 -56 0
-23 -22 -31 -33 -13 -8 12 -42 -4 -69 -33 -18 -18 -20 -18 -31 -3 -17 22 -35
20 -35 -5 0 -18 -5 -20 -45 -18 -24 2 -48 0 -51 -4 -4 -4 -15 0 -25 9 -16 15
-19 14 -30 -3 -8 -13 -19 -18 -35 -15 -17 3 -24 0 -24 -11 0 -14 -16 -16 -76
-8 -6 0 -17 15 -25 32 -12 29 -13 30 -26 13 -25 -34 -108 -13 -95 25 3 9 -2
11 -17 6 -14 -4 -21 -2 -21 7 0 8 -4 6 -11 -4 -11 -19 -54 -24 -64 -8 -4 6
-10 8 -15 5 -5 -3 -3 7 5 22 8 15 11 31 6 36 -10 10 -2 55 10 63 5 3 9 20 9
39 0 25 5 35 21 40 20 7 20 7 2 27 -14 16 -14 20 -3 16 16 -5 40 14 40 31 0
10 45 16 79 11 13 -2 13 0 0 16 -12 15 -12 17 1 12 16 -5 40 14 40 31 0 7 10
9 23 6 12 -3 39 3 62 14 22 11 47 18 55 14 8 -3 32 -7 53 -10z m1114 -132 c42
-21 99 -46 126 -55 24 -8 21 -33 -4 -47 -17 -9 -19 -13 -8 -19 9 -6 5 -11 -14
-15 -15 -4 -27 -13 -27 -21 0 -8 -7 -14 -15 -14 -10 0 -15 7 -13 18 2 13 -5
18 -29 20 -36 4 -45 -12 -13 -21 23 -6 27 -27 5 -27 -8 0 -15 -7 -15 -15 0
-12 -3 -12 -20 2 -11 10 -20 22 -20 27 0 6 5 5 12 -2 17 -17 33 -15 18 3 -7 8
-18 15 -24 15 -6 0 -24 11 -41 25 -28 23 -29 26 -12 36 11 6 16 17 12 29 -4
12 1 19 16 23 15 4 20 11 15 22 -6 15 0 35 9 35 3 0 21 -9 42 -19z m-3897 -87
c0 -8 4 -14 9 -14 10 0 81 -141 86 -172 2 -13 7 -33 10 -44 5 -18 2 -22 -22
-27 -17 -3 -37 0 -51 9 -13 8 -32 12 -42 9 -26 -8 -25 7 0 30 11 10 20 27 20
38 0 11 7 29 16 38 16 17 15 19 -8 28 -33 12 -54 68 -49 130 1 18 31 -5 31
-25z m440 -69 c11 -10 20 -15 20 -10 0 4 7 2 15 -5 9 -7 27 -10 44 -7 19 4 33
1 40 -7 9 -10 21 -12 49 -5 20 5 69 9 109 9 39 0 73 4 75 10 5 16 49 -1 46
-19 -4 -18 -70 -53 -78 -41 -3 4 -27 10 -54 13 -49 5 -76 -6 -76 -33 0 -8 -10
-9 -29 -5 -33 7 -49 -8 -31 -30 6 -8 9 -19 5 -25 -3 -5 -2 -10 2 -10 5 0 7
-16 5 -36 -3 -25 -1 -35 6 -30 6 4 16 -3 22 -14 6 -11 19 -20 28 -20 10 0 22
-12 29 -29 9 -24 7 -35 -6 -58 -9 -15 -18 -39 -18 -53 -1 -15 -17 -38 -40 -58
-55 -48 -61 -52 -70 -50 -4 2 -35 -25 -68 -60 -47 -48 -68 -62 -90 -62 -29 0
-85 43 -85 65 0 8 -14 10 -46 5 -59 -9 -107 20 -112 66 -2 19 -11 33 -25 39
-26 12 -43 55 -32 81 4 11 9 35 10 54 1 24 15 53 45 93 23 31 46 57 50 57 4 0
5 11 3 23 -4 20 2 27 41 45 25 12 52 22 59 22 7 0 17 4 23 9 8 9 47 18 83 20
13 1 11 23 -4 63 -8 21 29 16 55 -7z m1458 -627 c-2 -8 7 -13 20 -13 13 0 27
-6 31 -14 6 -10 10 -9 15 4 3 9 10 14 16 10 11 -7 3 -59 -17 -98 -8 -15 -11
-32 -8 -37 4 -6 -1 -13 -10 -17 -16 -5 -16 -7 -1 -15 9 -5 21 -6 26 -3 14 9
13 -18 -2 -33 -9 -9 -7 -13 5 -18 21 -8 22 -28 2 -44 -16 -13 -21 -65 -6 -56
5 4 11 3 13 -2 1 -4 18 -18 36 -31 18 -12 30 -27 26 -32 -3 -6 0 -16 6 -24 10
-12 10 -18 1 -29 -9 -10 -9 -16 -1 -21 6 -4 9 -12 7 -18 -2 -7 8 -17 23 -23
27 -12 98 -104 79 -104 -5 0 -7 -11 -3 -24 3 -13 1 -34 -6 -45 -7 -14 -7 -21
0 -21 5 0 10 -12 10 -26 0 -20 4 -25 16 -20 25 9 37 -4 17 -19 -12 -9 -20 -10
-24 -3 -4 7 -9 7 -13 0 -4 -6 6 -22 21 -36 24 -23 26 -29 15 -46 -10 -17 -9
-25 4 -45 11 -16 14 -37 11 -62 -7 -58 -63 -227 -76 -231 -6 -2 -11 -11 -11
-19 0 -9 -6 -13 -14 -10 -8 3 -16 -2 -19 -14 -6 -22 -39 -38 -45 -21 -2 7 -10
12 -18 12 -8 0 -14 10 -14 23 1 85 -14 273 -22 278 -5 3 -8 19 -6 35 2 23 8
30 31 32 24 3 27 7 21 25 -3 12 -8 24 -10 26 -7 7 -34 -22 -34 -36 0 -16 -24
-13 -26 3 0 5 -3 16 -7 24 -7 19 -37 201 -37 229 0 11 6 21 14 21 13 0 28 45
18 55 -3 3 -13 5 -23 5 -10 0 -20 9 -23 20 -3 11 -8 28 -11 39 -4 14 1 20 27
25 42 8 88 29 88 38 0 13 -48 9 -52 -3 -3 -8 -15 -9 -37 -4 -36 8 -58 42 -46
72 5 12 9 14 12 6 7 -18 38 -16 54 3 10 13 10 17 -2 25 -8 5 -23 9 -34 9 -25
0 -40 10 -48 33 -5 12 -1 17 12 17 21 0 73 39 53 40 -7 0 -20 7 -28 15 -9 8
-24 15 -34 15 -19 0 -22 9 -35 98 -7 45 6 75 29 66 7 -3 19 2 26 11 15 18 21
19 18 3z m1708 -190 c-3 -7 -26 -40 -51 -73 -24 -33 -76 -105 -114 -161 -39
-56 -83 -109 -98 -119 -15 -10 -48 -35 -73 -56 -25 -20 -55 -40 -67 -43 -13
-4 -41 -23 -64 -42 -22 -19 -45 -31 -50 -28 -5 3 -15 20 -23 37 -12 31 -12 33
21 55 18 12 33 27 33 32 0 6 8 10 18 10 10 0 56 26 102 58 87 59 93 66 245
277 39 53 79 109 90 123 l20 27 9 -42 c5 -23 6 -48 2 -55z m-2107 -328 c-6
-243 -1 -514 12 -648 11 -116 8 -146 -10 -98 -11 28 -30 33 -48 15 -13 -13
-36 -1 -79 37 -26 25 -23 82 7 107 18 14 20 21 11 45 -16 42 -22 101 -11 108
17 10 -1 48 -39 80 -30 27 -39 30 -59 21 -17 -7 -27 -7 -34 0 -17 17 -1 34 26
27 27 -7 74 19 56 31 -6 3 -11 17 -11 30 0 13 -6 25 -12 28 -7 2 -10 8 -5 12
4 5 20 -1 37 -13 l29 -22 -10 29 c-6 16 -17 32 -25 35 -11 4 -12 10 -5 24 7
13 7 22 -1 30 -9 9 -8 12 5 12 9 0 16 5 14 11 -1 6 8 12 19 14 24 2 40 16 68
59 18 28 18 29 -1 47 -12 12 -35 19 -66 20 -33 2 -52 8 -64 22 -17 20 -17 20
5 14 22 -5 23 -5 8 18 -19 29 -2 47 18 19 9 -12 15 -14 20 -5 4 6 18 8 32 5
17 -4 26 -1 30 10 3 9 14 16 24 16 13 0 17 5 13 21 -5 18 -2 20 22 17 l29 -3
-5 -175z m2121 -15 c-7 -8 -26 -41 -44 -74 -45 -86 -151 -198 -267 -286 -55
-41 -104 -75 -109 -75 -15 0 -53 80 -38 80 7 0 33 16 58 35 25 19 70 52 100
74 67 47 179 170 216 237 15 27 41 67 58 89 l31 39 3 -53 c2 -29 -2 -59 -8
-66z m-1333 8 c-4 -49 -7 -162 -8 -253 -1 -91 -6 -210 -10 -265 -5 -55 -10
-132 -11 -172 -2 -48 -6 -67 -12 -56 -13 24 -19 171 -8 240 5 35 5 63 0 63 -4
0 -8 -6 -8 -14 0 -8 -5 -18 -12 -22 -6 -4 -8 -3 -5 3 4 6 9 35 12 64 7 75 23
221 41 364 7 67 14 124 14 128 0 4 3 7 6 7 4 0 4 -39 1 -87z m437 55 c9 -42
37 -254 35 -264 -2 -9 2 -23 22 -73 9 -21 5 -29 -27 -62 -58 -59 -77 -30 -24
36 32 40 38 60 18 52 -7 -2 -12 -10 -10 -17 2 -7 -3 -10 -11 -7 -11 4 -13 0
-10 -14 3 -10 1 -19 -5 -19 -11 0 -16 21 -42 195 -11 72 -22 139 -25 151 -4
17 2 23 28 32 46 14 46 14 51 -10z m84 -442 c16 -8 53 -14 89 -13 34 1 64 -1
66 -3 2 -3 1 -26 -2 -52 -5 -39 -9 -46 -21 -38 -13 8 -13 10 -1 10 11 0 9 4
-5 14 -17 13 -21 12 -43 -11 -18 -18 -30 -24 -50 -19 -84 17 -131 31 -131 38
0 12 54 87 63 88 4 0 20 -6 35 -14z"/>
<path d="M4738 3097 c29 -29 52 -56 52 -60 0 -3 44 -51 98 -104 144 -146 211
-181 245 -132 9 13 17 16 22 10 11 -18 25 -12 25 10 0 17 3 19 13 11 17 -14
57 -4 57 15 0 10 6 12 23 7 12 -4 28 -6 35 -6 6 1 19 3 27 4 8 1 17 8 19 15 5
11 19 13 63 8 32 -4 66 -9 76 -12 10 -2 27 3 38 13 12 11 23 14 27 9 17 -24
52 -36 74 -24 17 9 23 8 31 -6 8 -14 11 -15 18 -4 5 8 9 10 9 4 0 -5 17 -11
38 -12 42 -3 70 17 115 83 15 23 38 50 50 61 21 18 51 51 120 130 l29 33 -678
0 -678 0 52 -53z"/>
<path d="M4990 1569 c-60 -9 -90 -22 -128 -54 -25 -21 -32 -23 -32 -11 0 9 5
16 10 16 6 0 10 5 10 12 0 9 -3 9 -12 0 -7 -7 -20 -12 -29 -12 -16 0 -17 -10
-13 -102 3 -61 13 -126 24 -158 17 -52 49 -257 85 -555 14 -111 95 -615 110
-682 l5 -23 275 0 c253 0 299 4 265 25 -5 3 -10 1 -10 -5 0 -6 -4 -8 -10 -5
-12 7 -48 129 -60 199 -8 48 -25 91 -86 220 -13 28 -24 57 -24 66 0 8 -12 37
-26 64 -14 27 -37 78 -51 115 -13 36 -28 71 -33 76 -4 6 -11 30 -15 55 -4 24
-18 59 -31 76 -13 17 -24 38 -24 47 0 10 -5 17 -10 17 -13 0 -31 45 -35 85 -2
16 -7 31 -13 33 -5 1 -7 13 -5 26 4 19 -1 27 -24 38 -22 10 -27 19 -25 39 2
14 -4 31 -12 39 -9 7 -16 18 -16 25 0 8 -6 16 -12 18 -7 3 -3 6 10 6 25 1 30
19 7 27 -8 4 -15 14 -15 23 0 10 -11 24 -25 31 -20 10 -22 16 -13 27 9 11 7
20 -9 41 -11 15 -25 28 -32 28 -22 3 -23 4 -11 18 12 15 162 76 183 75 7 0
-13 -10 -43 -22 -32 -12 -48 -23 -38 -25 9 -2 40 7 70 20 33 14 46 24 35 26
-9 2 -15 7 -12 12 3 5 -8 4 -24 -1 -17 -6 -36 -9 -43 -6 -7 2 6 10 30 17 23 7
42 17 42 23 0 5 -8 6 -17 2 -23 -10 -87 -14 -93 -6 -3 4 -25 4 -50 0z"/>
<path d="M7468 824 c-2 -2 -33 -6 -68 -9 -35 -3 -66 -7 -68 -10 -19 -19 40
-25 271 -25 222 -1 259 -3 264 -16 4 -12 8 -13 14 -3 6 10 11 10 23 0 11 -9
16 -10 16 -2 0 15 19 13 55 -5 25 -12 26 -13 6 -10 -15 3 -20 1 -15 -4 13 -13
106 -40 116 -34 4 3 8 0 8 -7 0 -7 13 -10 35 -7 32 4 37 1 34 -19 0 -3 6 -10
15 -15 9 -5 16 -15 16 -22 0 -14 49 -29 133 -41 26 -4 47 -11 47 -16 0 -13 24
-11 56 6 34 17 58 20 49 4 -4 -6 2 -5 14 3 24 14 27 33 9 42 -10 5 -10 7 0 12
6 3 12 23 12 45 0 30 -6 46 -27 65 -14 13 -23 28 -18 32 4 4 10 1 12 -5 3 -7
11 -13 19 -13 24 0 16 14 -16 28 -36 17 -163 10 -187 -10 -15 -11 -16 -11 -10
6 7 17 3 18 -43 14 -28 -3 -52 -2 -55 1 -4 8 -116 5 -203 -4 -32 -3 -51 -2
-48 4 3 5 -15 12 -41 14 -53 6 -420 7 -425 1z"/>
</g>
</svg>
