<?xml version="1.0" standalone="no"?>
<!DOCTYPE svg PUBLIC "-//W3C//DTD SVG 20010904//EN"
 "http://www.w3.org/TR/2001/REC-SVG-20010904/DTD/svg10.dtd">
<svg version="1.0" xmlns="http://www.w3.org/2000/svg"
 width="333.000000pt" height="479.000000pt" viewBox="0 0 333.000000 479.000000"
 preserveAspectRatio="xMidYMid meet">
<metadata>
Created by potrace 1.14, written by Peter Selinger 2001-2017
</metadata>
<g transform="translate(0.000000,479.000000) scale(0.100000,-0.100000)"
fill="#000000" stroke="none">
<path d="M983 4783 c15 -2 27 -11 27 -19 0 -8 3 -14 8 -14 11 0 76 -60 119
-111 106 -126 125 -148 150 -175 91 -96 123 -154 123 -225 0 -45 -15 -58 -36
-33 -14 18 -14 16 -8 -15 3 -18 2 -31 -2 -28 -5 3 -15 -1 -21 -9 -9 -9 -10
-15 -2 -20 8 -4 7 -9 -2 -15 -11 -6 -11 -11 -1 -21 9 -9 12 -9 12 0 0 6 7 9
16 5 8 -3 13 -12 10 -19 -3 -8 0 -11 10 -7 7 3 14 10 14 17 0 6 7 3 15 -8 8
-11 12 -30 8 -47 -4 -22 -2 -29 11 -29 9 0 16 -4 16 -10 0 -5 -4 -10 -8 -10
-4 0 -18 -20 -30 -45 -23 -49 -29 -70 -11 -45 9 12 10 11 4 -5 -4 -11 -12 -36
-17 -55 -6 -19 -15 -41 -20 -47 -7 -9 -7 -18 2 -28 6 -8 9 -19 5 -25 -3 -5 -3
-19 0 -30 5 -15 9 -17 19 -8 7 7 11 20 8 30 -5 21 16 50 30 42 6 -4 7 0 1 12
-14 33 0 149 18 139 7 -5 31 27 35 48 1 4 3 10 4 15 1 4 2 16 1 27 -1 12 10
29 27 42 l29 21 1 -29 c0 -16 -2 -27 -6 -25 -4 2 -8 -7 -9 -21 -1 -19 1 -22 8
-12 7 12 9 11 9 -2 0 -9 -10 -29 -22 -45 -13 -15 -17 -24 -9 -20 8 5 7 -1 -4
-18 -10 -14 -21 -26 -26 -26 -5 0 -6 -6 -3 -14 3 -8 1 -17 -5 -21 -6 -3 -11
-1 -11 5 0 6 -5 8 -11 4 -8 -5 -8 -9 1 -14 8 -5 10 -18 6 -36 -4 -16 -7 -35
-8 -41 -1 -7 -5 -13 -10 -13 -4 0 -8 -9 -8 -21 0 -13 -4 -18 -12 -13 -8 5 -9
2 -4 -11 4 -10 3 -21 -3 -24 -15 -10 12 -76 32 -75 21 2 21 0 0 -33 -10 -15
-13 -24 -6 -20 13 8 13 -29 0 -50 -4 -6 -2 -15 4 -19 6 -3 15 -1 19 6 4 6 10
11 14 11 20 -3 26 0 21 9 -11 17 1 11 36 -20 l34 -30 10 33 c5 17 15 38 22 45
7 7 13 23 13 35 0 16 3 18 9 8 5 -8 11 -9 15 -3 7 12 -21 25 -36 16 -5 -3 -8
2 -6 12 2 13 -2 18 -14 16 -15 -2 -17 5 -17 48 1 28 6 53 10 56 5 3 9 14 9 25
0 10 9 24 20 31 11 7 20 21 20 32 0 15 3 16 15 6 12 -10 15 -10 15 3 0 8 7 28
15 43 11 21 15 24 15 11 0 -10 4 -16 9 -13 5 4 7 -3 4 -14 -3 -11 -10 -20 -15
-20 -6 0 -8 -6 -5 -13 3 -7 -6 -23 -19 -36 -13 -13 -24 -32 -24 -43 0 -13 -4
-17 -12 -12 -10 6 -10 4 0 -8 7 -9 14 -30 15 -47 2 -30 24 -44 31 -18 20 72
32 104 43 115 7 7 13 20 13 28 0 8 9 14 21 14 16 0 19 4 14 21 -5 13 -3 19 3
15 5 -3 12 3 15 14 3 11 1 20 -4 20 -5 0 -9 -4 -9 -9 0 -5 -7 -12 -16 -15 -8
-3 -12 -2 -9 4 3 5 1 18 -5 29 -7 13 -7 22 0 26 5 3 10 1 10 -6 0 -22 11 -2
14 25 2 15 -2 29 -8 33 -6 3 -8 3 -4 -2 4 -4 -1 -20 -12 -35 -11 -16 -17 -35
-14 -44 5 -12 2 -15 -10 -10 -17 6 -23 54 -7 54 5 0 9 15 8 34 -2 26 -5 32
-14 24 -7 -6 -19 -8 -26 -5 -10 4 -13 -1 -10 -17 3 -13 -2 -28 -11 -35 -9 -8
-16 -18 -16 -23 0 -17 -37 -58 -45 -50 -5 4 -5 -1 -1 -12 5 -14 3 -17 -10 -12
-13 5 -15 2 -11 -14 3 -13 1 -18 -6 -13 -6 4 -8 -2 -5 -15 4 -12 2 -22 -2 -22
-5 0 -12 -16 -16 -36 -5 -25 -9 -32 -15 -22 -6 8 -9 -2 -9 -29 0 -32 -4 -43
-15 -43 -8 0 -15 -8 -15 -19 0 -10 7 -24 15 -31 12 -10 15 -9 15 5 0 10 3 16
6 12 3 -3 3 -16 -1 -28 -7 -22 -8 -22 -21 -4 -13 18 -14 18 -15 -6 -1 -13 -1
-32 0 -41 2 -12 -3 -16 -13 -12 -15 6 -14 42 3 69 3 6 6 38 5 73 0 34 2 62 6
62 4 0 13 25 20 55 7 31 17 58 22 61 4 3 8 13 8 23 0 10 9 26 20 36 12 11 28
33 36 51 8 17 26 37 40 45 14 7 28 25 31 41 l6 28 30 -32 c20 -21 32 -27 35
-19 3 8 11 3 22 -14 11 -17 20 -23 24 -16 4 6 2 11 -3 11 -6 0 -11 5 -11 11 0
6 6 9 14 6 20 -8 25 13 16 64 -11 59 -20 80 -31 73 -22 -13 5 25 30 44 37 27
47 17 15 -16 -27 -30 -31 -47 -10 -39 10 4 15 -4 18 -28 2 -21 0 -31 -7 -27
-11 6 15 -29 29 -39 4 -4 3 -10 -3 -13 -8 -5 -8 -13 -1 -27 6 -10 7 -19 3 -19
-11 -1 29 -24 45 -26 9 -2 11 5 6 19 -6 22 -6 22 9 2 8 -11 16 -29 18 -40 3
-12 12 -20 23 -20 11 0 23 -9 27 -20 4 -11 8 -14 8 -7 1 19 19 14 26 -8 3 -11
15 -20 26 -20 11 0 19 -7 19 -16 0 -13 3 -14 14 -5 11 9 15 9 20 -1 3 -7 4 0
1 15 -4 17 -2 26 4 23 5 -3 11 0 14 6 4 10 7 10 18 0 12 -11 12 -13 -1 -10 -9
2 -15 -6 -17 -22 -1 -14 0 -19 3 -12 3 6 18 12 33 12 16 0 38 9 51 20 25 22
40 26 40 10 0 -5 -6 -9 -12 -7 -7 1 -12 -6 -12 -15 1 -10 -3 -15 -8 -12 -6 4
-8 -3 -4 -17 6 -20 5 -21 -4 -6 -9 13 -15 15 -30 7 -25 -13 -33 -13 -24 3 5 7
1 7 -12 -3 -10 -8 -20 -15 -22 -16 -1 -1 0 -8 4 -17 5 -15 8 -15 21 -2 17 18
43 20 43 3 0 -6 -8 -21 -17 -32 -10 -12 -2 -7 16 9 19 17 31 25 27 18 -3 -6
-2 -15 4 -18 6 -4 9 -1 8 6 -2 8 7 13 19 14 12 0 29 9 37 20 12 16 15 17 16 4
0 -12 8 -14 30 -11 33 5 40 -11 13 -27 -16 -9 -15 -10 5 -11 13 0 33 5 45 11
19 9 18 7 -4 -14 -20 -18 -24 -28 -17 -40 5 -10 5 -17 1 -17 -4 0 -3 -4 2 -8
6 -4 16 -19 22 -34 10 -23 10 -27 -5 -31 -15 -4 -15 -5 1 -6 15 -1 15 -4 5
-21 -10 -15 -10 -23 -2 -28 6 -4 14 -17 18 -29 6 -19 4 -23 -13 -23 -14 0 -19
5 -15 14 4 11 0 13 -18 9 -19 -5 -21 -3 -10 8 18 20 15 28 -10 21 -14 -3 -19
-2 -14 6 4 8 -3 16 -21 22 -15 6 -37 15 -48 20 -36 16 -90 28 -120 26 -17 0
-29 4 -28 10 1 6 -5 11 -12 11 -11 0 -12 -4 -4 -13 13 -16 -9 -24 -39 -13 -15
6 -21 5 -17 -1 3 -6 1 -10 -4 -10 -6 0 -11 -5 -11 -11 0 -6 9 -8 20 -4 11 3
32 0 47 -8 16 -8 62 -25 103 -38 41 -12 67 -25 57 -27 -9 -2 -15 -8 -12 -13 4
-5 -1 -9 -9 -9 -9 0 -16 -5 -16 -11 0 -5 4 -8 9 -5 5 4 20 2 33 -3 23 -10 23
-10 1 -10 -25 -1 -39 -17 -21 -23 7 -3 25 3 40 11 23 14 29 14 40 2 7 -8 9
-12 3 -9 -5 3 -19 2 -30 -3 -19 -7 -19 -8 3 -8 30 -1 28 -21 -2 -21 -14 0 -28
-4 -31 -10 -4 -6 1 -7 12 -4 13 4 11 0 -6 -14 l-25 -20 27 5 c20 4 27 1 27
-10 0 -8 -12 -17 -29 -20 -18 -4 -31 -14 -35 -29 -5 -18 -8 -20 -15 -9 -7 11
-10 10 -18 -4 -5 -9 -14 -18 -19 -18 -5 -1 -8 -5 -7 -8 1 -4 -10 -10 -25 -14
-15 -4 -35 -14 -45 -23 -9 -8 -32 -15 -50 -15 -50 0 -107 6 -107 10 0 23 108
73 161 75 39 1 40 2 10 5 l-34 4 37 25 c20 14 34 30 30 35 -3 6 2 13 12 15 11
3 27 16 36 29 17 22 17 23 -5 18 -20 -4 -20 -3 -6 9 15 12 15 15 -7 25 -13 6
-22 7 -19 3 9 -14 -28 -28 -50 -19 -29 11 -43 10 -22 -2 9 -5 17 -15 17 -22 0
-9 -2 -9 -8 -1 -4 6 -18 15 -32 19 -14 4 -22 4 -18 0 11 -12 -52 -55 -79 -55
-27 0 -32 -20 -5 -20 15 -1 15 -2 -2 -15 -11 -8 -29 -15 -40 -14 -18 1 -18 2
4 9 23 7 23 8 3 9 -12 1 -24 -3 -28 -9 -3 -5 -11 -7 -18 -4 -8 3 -24 0 -38 -6
-24 -10 -24 -10 3 -5 21 4 26 2 22 -9 -3 -8 -11 -13 -18 -10 -7 3 -25 -7 -42
-21 -22 -19 -25 -25 -11 -25 9 0 17 -6 17 -14 0 -18 -27 -29 -36 -14 -4 6 -3
8 4 4 6 -3 13 -2 16 3 3 5 -4 11 -16 14 -22 6 -22 6 5 31 15 14 27 28 27 31 0
12 -28 4 -48 -15 -12 -11 -25 -20 -31 -20 -5 0 -11 -7 -15 -15 -6 -17 -36 -21
-36 -4 0 5 5 7 10 4 6 -3 10 -1 10 4 0 6 -4 11 -10 11 -5 0 -10 5 -10 11 0 5
4 8 9 5 10 -7 8 45 -3 62 -13 22 5 32 58 32 75 0 205 47 191 70 -7 12 -63 20
-135 19 -87 0 -109 -2 -105 -9 2 -4 -9 -14 -26 -24 -16 -9 -29 -23 -29 -30 0
-7 -6 -21 -14 -31 -14 -19 -15 -19 -35 -1 -23 21 -31 18 -34 -11 -1 -14 -8
-18 -30 -17 -24 2 -28 -1 -24 -18 8 -29 -2 -48 -20 -41 -11 4 -14 3 -9 -6 6
-8 2 -11 -9 -9 -10 2 -20 -3 -23 -11 -3 -9 0 -11 8 -6 10 6 11 3 6 -11 -11
-28 -14 -64 -5 -58 4 2 16 -10 25 -27 13 -25 13 -33 3 -40 -7 -4 -17 -5 -22
-2 -5 3 -40 5 -78 5 -38 0 -72 4 -75 9 -7 12 -24 2 -24 -15 0 -8 11 -11 33 -8
17 1 64 -1 102 -5 52 -6 70 -12 70 -23 0 -8 -11 -16 -25 -18 -14 -2 -29 -8
-35 -13 -13 -13 -69 -11 -84 4 -7 6 1 -15 18 -48 17 -33 32 -75 33 -92 1 -18
6 -33 11 -33 5 0 1 -8 -8 -17 -16 -15 -15 -17 9 -30 15 -8 30 -12 35 -9 4 3
17 -1 27 -8 14 -11 22 -11 32 -3 10 8 16 7 22 -2 4 -8 12 -11 18 -7 6 3 12 1
14 -5 3 -9 10 -8 26 2 19 12 24 11 46 -10 13 -12 27 -18 30 -13 3 5 17 8 31 7
17 -2 25 2 25 11 0 9 4 12 10 9 6 -3 7 1 4 10 -5 12 -10 13 -20 4 -8 -6 -22
-8 -31 -4 -10 4 -35 9 -55 11 -20 1 -47 8 -60 15 -13 7 -24 12 -26 11 -4 -4
-67 26 -84 39 -27 22 -30 78 -7 116 12 18 27 33 35 33 8 0 31 15 51 34 21 18
52 37 68 43 22 7 31 17 33 37 3 23 7 26 25 20 12 -4 31 -13 42 -20 25 -18 35
-18 35 1 0 18 31 20 49 3 11 -10 13 -10 7 0 -5 8 0 12 14 12 19 0 20 -1 6 -16
-19 -19 -21 -27 -3 -21 6 2 21 0 32 -6 17 -9 18 -8 7 5 -10 13 -9 16 9 21 12
3 28 0 36 -9 13 -12 12 -14 -3 -14 -13 0 -14 -3 -5 -14 15 -18 5 -24 -34 -22
-23 1 -29 5 -27 20 2 12 -1 16 -9 10 -7 -4 -26 -8 -43 -10 -29 -2 -29 -1 -8
10 21 11 21 12 2 24 -17 10 -20 10 -20 -3 0 -8 -5 -15 -10 -15 -13 0 -9 -32 4
-42 5 -3 -10 -11 -35 -18 -24 -6 -47 -12 -51 -13 -4 -1 -4 -8 1 -16 11 -17 54
-5 44 12 -3 7 2 5 13 -4 13 -11 43 -16 98 -18 82 -2 100 -6 91 -21 -8 -12 19
-16 94 -11 l66 4 -50 13 c-95 24 -174 49 -182 57 -4 5 6 5 22 2 56 -13 80 -11
93 7 16 22 34 24 26 3 -5 -12 3 -15 35 -16 23 -1 46 -3 51 -4 6 -1 16 -3 24
-4 9 0 13 -9 11 -20 -3 -15 1 -18 18 -14 18 4 19 3 7 -6 -8 -6 -10 -11 -5 -12
6 0 1 -4 -10 -9 -18 -8 -18 -9 5 -9 14 -1 36 -4 50 -7 23 -5 24 -5 5 7 -11 6
-22 14 -25 16 -6 5 21 23 35 23 6 0 3 -5 -5 -10 -12 -8 -10 -10 8 -10 18 0 22
-4 17 -19 -4 -13 0 -21 12 -25 10 -3 -9 -4 -42 -1 -33 2 -54 1 -47 -1 15 -7
16 -24 2 -24 -6 0 -15 10 -20 23 -8 19 -9 18 -7 -10 1 -19 7 -33 14 -33 6 0
15 -5 19 -12 5 -8 -3 -9 -31 -5 -29 5 -35 3 -27 -5 20 -20 13 -30 -15 -24 -16
3 -22 3 -15 0 20 -9 14 -27 -8 -21 -11 3 -18 0 -17 -7 1 -6 -10 -11 -25 -11
-14 1 -24 -3 -22 -7 3 -4 -5 -12 -16 -18 -11 -6 -20 -8 -20 -5 0 3 -10 -1 -22
-9 -12 -9 -29 -16 -36 -16 -8 0 -28 -6 -45 -14 -18 -7 -47 -19 -65 -26 -48
-19 -72 -54 -62 -90 4 -15 6 -31 3 -34 -3 -3 -1 -12 6 -19 6 -8 12 -32 14 -53
1 -22 4 -41 7 -44 3 -3 10 -14 17 -25 6 -11 16 -19 23 -17 6 1 9 -2 5 -8 -6
-10 29 -28 96 -49 45 -14 70 -5 149 55 104 78 162 152 255 327 33 62 74 124
96 144 21 19 44 52 52 72 9 20 33 53 55 72 105 90 146 125 161 135 47 32 189
45 183 17 -3 -17 15 -17 20 -1 4 10 14 9 47 -2 28 -9 38 -16 29 -22 -9 -5 -6
-8 9 -8 15 0 21 -5 17 -14 -3 -9 5 -19 22 -28 15 -7 30 -19 32 -27 4 -11 -3
-13 -29 -8 l-34 7 35 -22 c19 -11 46 -27 58 -35 23 -14 23 -15 6 -34 -17 -19
-17 -21 8 -42 29 -24 58 -76 58 -104 0 -15 -2 -16 -10 -3 -5 8 -12 11 -16 7
-10 -10 12 -71 48 -129 32 -51 51 -158 29 -158 -20 0 -14 -121 9 -157 12 -20
15 -35 9 -38 -15 -10 -1 -106 20 -135 31 -43 64 -113 68 -145 12 -83 -6 -226
-31 -251 -8 -8 -13 -21 -10 -29 4 -8 2 -15 -4 -15 -12 0 -26 -86 -26 -172 -1
-44 3 -68 10 -68 6 0 14 -22 18 -49 3 -27 13 -54 20 -60 13 -11 35 -54 79
-151 12 -27 15 -59 12 -130 -8 -184 -23 -293 -46 -325 -12 -18 -7 -96 7 -102
20 -7 17 -19 -5 -20 -20 -2 -45 27 -54 62 -4 19 -5 19 -6 -1 0 -12 4 -36 10
-53 10 -27 15 -32 35 -27 19 5 24 2 24 -12 0 -10 -5 -23 -12 -30 -9 -9 -7 -16
10 -32 12 -12 22 -26 22 -33 0 -8 -3 -8 -9 2 -6 9 -10 10 -16 2 -4 -7 -3 -17
3 -24 16 -21 0 -103 -18 -92 -5 3 -6 -19 -4 -49 4 -41 1 -55 -10 -59 -32 -12
-90 118 -67 148 5 6 11 27 14 47 4 26 2 38 -9 42 -9 4 -14 -1 -14 -15 0 -11
-9 -36 -19 -57 -13 -25 -18 -51 -15 -81 5 -54 14 -66 15 -20 l1 34 9 -40 c11
-49 63 -115 90 -115 10 0 19 -4 19 -10 0 -5 7 -10 15 -10 8 0 15 -6 15 -12 0
-9 4 -8 10 2 8 12 10 10 10 -11 0 -14 -12 -38 -28 -55 -30 -31 -52 -81 -52
-120 0 -28 45 -80 77 -89 21 -6 23 -3 23 27 0 22 -7 37 -20 46 -15 9 -20 23
-20 53 0 26 7 50 20 66 20 25 20 41 20 1514 l0 1489 -142 0 c-234 0 -602 12
-611 19 -4 4 -1 32 7 62 13 51 12 55 -6 65 -10 5 -15 13 -12 17 4 4 -6 8 -22
8 -17 1 -22 3 -11 6 34 9 11 30 -26 24 -5 -1 -6 3 -3 8 4 5 1 11 -4 13 -6 2
-13 12 -15 23 -2 11 -4 21 -5 23 -2 1 -3 7 -4 14 0 6 -9 12 -19 14 -28 4 -33
13 -18 36 11 17 11 22 -1 29 -7 5 -8 9 -3 9 6 0 -3 9 -20 20 -16 11 -25 20
-20 20 6 0 2 7 -8 14 -16 13 -16 14 -1 20 10 4 20 3 23 -2 9 -14 113 -25 121
-13 3 6 17 12 30 14 28 5 39 34 44 122 5 95 17 145 33 145 11 0 13 -8 8 -32
l-6 -33 21 24 c11 13 20 36 20 52 0 16 5 60 12 98 10 62 10 74 -6 109 -10 22
-15 45 -12 51 4 6 3 11 -2 11 -4 0 -9 21 -11 46 -5 102 -94 263 -170 308 -20
11 -38 21 -41 21 -3 0 -11 4 -19 9 -11 7 -13 4 -9 -11 4 -16 0 -22 -18 -26
-13 -2 -24 0 -24 4 0 5 5 9 10 9 6 0 10 7 10 16 0 11 -5 14 -16 10 -9 -4 -36
-11 -60 -17 -24 -6 -44 -15 -44 -20 0 -28 89 -38 147 -17 23 9 36 9 44 1 7 -7
3 -9 -15 -6 -14 3 -26 1 -26 -5 0 -12 47 -25 60 -17 6 3 7 0 5 -7 -3 -8 5 -23
17 -34 27 -25 70 -74 63 -74 -2 0 1 -13 6 -29 7 -20 15 -28 25 -24 8 3 14 -1
14 -10 0 -8 -6 -18 -12 -20 -8 -4 -7 -6 4 -6 17 -1 35 -52 24 -70 -4 -5 0 -12
6 -14 10 -4 10 -6 1 -6 -21 -2 -15 -39 7 -46 11 -4 18 -11 15 -16 -4 -5 -1 -9
4 -9 17 0 13 -77 -4 -84 -8 -3 -15 0 -15 7 -1 30 -20 -21 -20 -53 0 -19 -4
-30 -8 -25 -4 6 -34 11 -67 13 -33 1 -136 6 -230 11 -126 7 -171 7 -177 -2 -5
-8 -9 -7 -13 3 -3 9 -19 15 -39 16 -18 0 -46 6 -62 12 -26 11 -29 17 -29 55 0
23 5 47 10 53 6 6 28 41 50 78 22 36 64 103 93 147 29 45 51 88 48 96 -4 8 -1
11 5 7 6 -3 24 3 40 15 16 12 34 19 39 16 5 -3 11 -1 14 4 4 5 -3 12 -14 16
-11 3 -20 10 -20 15 0 5 -7 7 -16 3 -8 -3 -13 -12 -10 -19 3 -9 -2 -14 -13
-14 -34 0 -161 -181 -173 -246 -2 -10 -15 -31 -31 -48 -15 -17 -25 -37 -22
-44 3 -8 0 -10 -6 -6 -7 4 -10 -4 -8 -22 4 -34 -4 -50 -34 -65 -18 -9 -20 -9
-9 2 6 7 12 25 12 39 0 30 29 88 94 189 21 32 25 46 16 51 -9 6 -7 9 6 13 10
2 -23 4 -75 4 -76 0 -101 -4 -128 -19 -27 -16 -36 -18 -48 -8 -20 17 -76 7
-112 -19 -32 -24 -73 -19 -73 9 0 13 -6 16 -25 12 -14 -2 -23 -8 -20 -12 3 -4
-2 -13 -10 -20 -11 -9 -15 -9 -15 -1 0 14 -32 11 -42 -4 -4 -5 -8 1 -8 14 0
18 4 22 20 18 10 -3 24 1 30 8 9 11 6 12 -12 8 -13 -3 -20 -2 -16 2 9 9 -59
48 -71 40 -5 -2 -19 4 -31 15 -14 12 -31 18 -42 14 -10 -3 -18 -1 -18 5 0 6
-7 7 -17 4 -10 -4 -14 -2 -10 4 5 7 0 9 -12 6 -12 -3 -26 5 -40 23 -11 14 -21
23 -21 18 0 -5 -26 18 -58 52 -33 33 -88 82 -124 107 -53 38 -73 47 -104 46
-30 -2 -33 -3 -11 -6z m782 -2022 c8 -16 20 -35 28 -43 7 -7 32 -38 54 -69 23
-31 49 -63 58 -72 15 -16 15 -19 -2 -40 -20 -23 -43 -33 -43 -18 0 5 3 11 8
14 4 2 1 2 -6 0 -22 -5 -67 24 -80 52 -7 14 -13 54 -14 88 -1 57 -2 58 -5 14
-2 -26 -8 -45 -14 -42 -12 8 -12 82 1 90 6 4 6 15 0 30 -13 34 -4 31 15 -4z"/>
<path d="M1344 4055 c3 -9 -4 -17 -17 -21 -12 -4 -25 -12 -29 -18 -5 -7 -8 -4
-8 7 0 9 -4 17 -10 17 -13 0 -13 -20 0 -40 8 -13 13 -13 31 -2 27 17 35 8 20
-24 -6 -15 -9 -36 -6 -48 6 -21 6 -21 -9 -2 -12 15 -16 16 -16 5 0 -8 6 -21
13 -28 10 -10 8 -15 -7 -26 -10 -8 -15 -18 -11 -24 3 -6 2 -11 -3 -11 -5 0
-10 -19 -12 -42 -3 -71 0 -92 12 -103 8 -7 9 -7 4 2 -3 6 -2 14 4 18 6 4 8 11
4 16 -3 6 1 16 9 22 15 12 25 55 31 131 2 22 10 44 18 50 9 7 13 26 11 51 l-3
40 15 -32 c8 -18 17 -33 21 -33 4 0 4 3 1 7 -4 3 -1 13 6 21 10 13 9 15 -5 9
-10 -3 -18 -2 -18 3 0 6 5 10 10 10 6 0 10 9 10 20 0 11 -1 20 -3 20 -1 0 -17
4 -35 10 -28 7 -33 7 -28 -5z"/>
<path d="M1940 3890 c0 -8 -13 -26 -29 -40 -17 -13 -28 -27 -26 -30 2 -4 -12
-6 -31 -5 -39 1 -60 -16 -50 -42 4 -10 4 -14 0 -10 -4 4 -13 -5 -21 -20 -17
-32 -10 -40 22 -25 19 9 27 8 39 -3 12 -13 15 -13 20 0 4 12 11 13 31 5 15 -6
34 -10 43 -10 14 0 15 2 2 9 -8 6 -18 7 -22 5 -4 -3 -5 2 -2 10 4 12 -2 14
-33 11 -34 -2 -35 -2 -13 7 14 6 32 13 40 17 24 12 43 2 29 -15 -9 -11 -3 -10
19 3 17 10 28 21 26 25 -5 7 10 12 28 9 12 -1 -4 33 -21 46 -22 17 -29 16 -36
-8 -4 -11 -9 -18 -13 -15 -3 3 0 17 7 30 10 17 10 29 2 42 -8 14 -10 15 -11 4z"/>
<path d="M30 3424 c0 -46 -3 -55 -15 -50 -13 5 -15 -56 -15 -505 0 -460 2
-510 16 -505 9 3 48 9 87 12 47 4 82 13 99 25 15 10 33 19 41 19 7 0 17 3 20
6 14 14 88 12 94 -2 3 -8 12 -14 21 -14 12 0 13 3 5 11 -8 8 -8 18 0 36 6 13
13 19 16 14 6 -10 172 30 204 49 9 5 34 12 56 15 21 3 64 16 95 30 31 14 71
25 89 25 18 0 37 4 43 10 5 5 30 12 54 15 78 9 154 23 190 36 38 13 73 43 62
53 -3 4 1 4 10 1 8 -3 15 -14 14 -23 -1 -11 5 -16 17 -14 24 4 21 -11 -6 -23
-12 -6 -21 -16 -20 -23 2 -7 -2 -12 -8 -12 -6 0 -9 6 -6 14 5 12 -5 13 -51 9
-31 -3 -60 -11 -64 -17 -4 -6 -8 -8 -8 -4 0 4 -19 0 -42 -8 -24 -9 -47 -17
-53 -18 -26 -7 -51 -21 -57 -32 -5 -7 -16 -10 -27 -7 -10 3 -22 0 -25 -6 -4
-7 -15 -7 -30 -1 -13 5 -27 6 -31 2 -3 -4 -34 -14 -68 -23 -52 -13 -62 -19
-61 -36 0 -13 -4 -19 -13 -16 -7 3 -13 9 -13 14 0 5 -4 9 -10 9 -5 0 -10 -7
-10 -15 0 -11 -10 -14 -45 -11 -24 3 -47 0 -50 -5 -4 -5 1 -9 9 -9 34 0 14
-18 -25 -23 -23 -3 -46 -11 -50 -19 -7 -11 -11 -10 -18 1 -8 12 -12 12 -25 -2
-9 -9 -23 -14 -31 -10 -11 4 -14 0 -9 -13 6 -18 6 -18 -7 -2 -8 10 -24 21 -37
26 -29 10 -92 3 -92 -10 0 -6 11 -7 26 -4 17 5 23 3 19 -4 -3 -5 -13 -10 -21
-10 -17 0 -18 -12 -3 -27 9 -9 7 -10 -9 -6 -12 3 -20 9 -17 13 8 13 -28 17
-50 6 -11 -6 -25 -17 -31 -25 -7 -9 -20 -12 -37 -7 -16 4 -27 2 -27 -4 0 -5
-11 -10 -24 -10 -13 0 -26 -7 -30 -15 -3 -8 -15 -15 -27 -15 -42 0 -9 -13 43
-17 63 -5 113 -11 113 -14 0 -1 11 -3 25 -4 64 -7 125 -19 130 -25 7 -11 190
-49 206 -43 8 3 14 1 14 -4 0 -5 8 -10 18 -11 54 -6 152 -27 152 -33 0 -3 11
-4 25 -1 14 2 32 -1 40 -8 9 -7 27 -10 45 -6 19 3 30 1 30 -5 0 -6 7 -8 16 -5
9 3 31 -1 50 -10 19 -9 38 -14 41 -10 3 3 12 1 20 -5 10 -9 19 -7 38 5 14 9
25 12 25 7 0 -6 7 -8 15 -5 10 4 13 13 10 25 -5 15 -1 19 15 19 18 0 64 23 80
40 3 3 23 5 45 5 76 0 89 14 118 123 31 113 53 273 42 299 -4 10 -9 29 -11 42
-4 33 -25 81 -35 81 -14 0 -21 -20 -7 -21 7 0 -1 -5 -19 -10 -19 -6 -40 -5
-55 0 -23 10 -23 10 4 10 15 1 33 8 42 16 8 8 26 15 40 15 24 0 26 3 26 45 0
51 -16 92 -39 100 -27 8 -117 98 -103 103 18 6 14 20 -8 27 -12 4 -22 19 -26
41 -7 40 -17 43 -32 12 -9 -19 -11 -12 -10 42 0 36 2 58 5 48 3 -10 18 -17 44
-20 21 -2 39 -2 39 0 0 1 -7 14 -16 27 -14 21 -14 30 -4 55 13 31 43 42 38 14
-2 -10 4 -19 12 -22 8 -3 12 -1 7 3 -4 5 -1 15 7 24 15 16 16 20 16 46 0 8 11
17 25 21 14 3 25 12 25 19 0 7 6 16 12 18 7 3 2 6 -11 6 -17 1 -22 -3 -17 -14
3 -8 1 -15 -3 -15 -5 0 -11 7 -15 15 -3 8 -2 15 2 15 11 0 35 87 27 100 -9 15
-32 -15 -45 -60 -7 -23 -24 -45 -51 -64 -22 -15 -37 -31 -33 -35 4 -3 9 0 11
7 3 6 9 12 14 12 11 0 -10 -40 -31 -57 -8 -7 -20 -11 -25 -9 -13 4 -14 -33 -2
-51 6 -9 2 -13 -12 -13 -14 0 -21 6 -21 20 0 12 -9 39 -20 60 -12 23 -16 40
-10 40 6 0 8 5 5 10 -3 6 0 10 8 10 18 0 14 49 -5 62 -8 5 -2 6 17 2 17 -4 33
-12 36 -17 4 -5 15 -7 25 -3 18 7 17 9 -5 25 -13 10 -21 23 -18 28 10 16 -36
33 -50 18 -9 -10 -8 -14 8 -18 10 -3 19 -11 19 -18 0 -10 -3 -10 -11 -2 -6 6
-18 9 -25 6 -8 -3 -14 0 -14 7 0 7 -6 5 -16 -5 -15 -15 -15 -17 2 -30 11 -8
22 -15 26 -15 10 0 6 -23 -6 -32 -5 -3 -22 3 -38 15 -23 17 -31 19 -37 8 -5
-7 -11 -9 -14 -4 -3 5 -39 9 -79 7 -43 -1 -76 3 -80 9 -4 7 -12 6 -23 -3 -14
-12 -18 -12 -27 1 -7 11 -11 11 -15 1 -4 -10 -8 -10 -20 0 -18 15 -65 17 -75
3 -5 -6 -12 -5 -17 5 -8 12 -12 10 -20 -10 l-10 -25 -1 25 c-1 23 -2 24 -14 7
-13 -17 -14 -17 -21 0 -5 12 -9 14 -12 6 -7 -19 -21 -16 -26 5 -4 16 -5 16 -6
0 0 -10 -5 -18 -11 -18 -5 0 -10 8 -10 18 -1 13 -4 12 -14 -7 l-13 -24 -11 29
c-9 25 -11 26 -11 7 -1 -33 -21 -28 -22 5 0 15 -3 20 -6 12 -14 -44 -15 -45
-29 -15 l-13 30 -1 -27 c0 -39 -20 -35 -21 5 -2 30 -2 30 -6 5 -6 -39 -31 -35
-36 5 l-4 32 -1 -33 c-2 -44 -25 -38 -33 9 l-6 34 -2 -36 c-1 -33 -3 -36 -31
-36 -25 0 -32 5 -36 26 -10 44 -12 47 -13 14 -1 -45 -21 -42 -21 2 0 19 -4 35
-10 35 -5 0 -10 -16 -10 -36 0 -46 -22 -41 -28 7 -5 47 -12 50 -12 6 0 -26 -4
-37 -15 -37 -11 0 -15 12 -16 43 -1 43 -3 40 -15 -28 -5 -33 -8 -37 -14 -20
-5 11 -9 35 -9 54 -1 46 -11 34 -16 -19 -7 -76 -28 -68 -26 10 0 27 -4 50 -9
50 -6 0 -10 -25 -10 -56z"/>
<path d="M2560 2485 c0 -38 -6 -60 -35 -130 -5 -11 -9 -24 -10 -30 -1 -5 -8
-29 -15 -53 -13 -41 -12 -44 9 -65 16 -15 25 -18 28 -10 3 8 18 11 46 7 l42
-6 -1 143 c0 79 -4 151 -8 160 -4 10 -18 19 -32 22 -22 4 -24 1 -24 -38z"/>
<path d="M1 2026 c-1 -70 2 -102 11 -108 10 -6 10 -8 1 -8 -17 0 -18 -697 -2
-717 8 -9 8 -13 0 -13 -6 0 -11 -7 -11 -15 0 -18 5 -18 31 -5 10 6 19 20 19
30 0 11 5 20 10 20 6 0 10 -7 10 -15 0 -22 28 -18 35 4 8 26 32 44 45 36 8 -5
5 -12 -7 -21 -13 -11 -8 -10 17 2 38 18 55 31 28 21 -11 -4 -18 1 -22 16 -9
33 -7 44 4 25 8 -13 17 -15 40 -8 17 5 32 5 35 0 9 -15 34 0 37 23 3 22 48 39
48 18 0 -6 4 -11 9 -11 5 0 8 8 7 18 0 9 4 16 11 15 6 -2 28 4 48 13 20 8 40
12 45 9 6 -4 10 1 10 10 0 9 4 14 8 11 12 -7 92 15 92 25 0 5 6 8 13 6 6 -1
11 4 9 12 -2 9 4 12 18 8 12 -3 42 3 66 13 24 11 44 17 44 15 0 -8 65 18 82
32 9 8 21 12 27 9 6 -4 18 1 28 11 11 11 28 19 38 20 34 2 99 30 84 36 -8 3 3
6 24 6 20 1 45 5 55 10 9 4 31 16 49 25 17 9 40 16 51 16 16 0 25 16 46 84 14
46 26 94 26 106 0 22 -1 22 -26 5 -24 -16 -26 -16 -38 1 -7 9 -18 14 -24 10
-5 -3 -12 0 -15 6 -3 10 -7 10 -20 -1 -10 -8 -17 -9 -17 -3 0 6 4 13 9 17 11
6 11 45 0 45 -4 0 -9 -7 -13 -15 -3 -8 -11 -15 -17 -15 -9 0 -9 3 0 14 9 10 8
16 -4 26 -12 10 -13 15 -4 21 23 14 -6 56 -48 69 -21 7 -44 18 -52 24 -11 8
-15 8 -18 -1 -6 -16 -30 -17 -35 -3 -2 6 -28 13 -58 15 -30 2 -93 9 -140 16
-108 14 -142 18 -210 24 -30 3 -67 11 -82 16 -15 6 -39 8 -53 5 -15 -4 -25 -2
-25 4 0 8 -6 7 -20 0 -15 -8 -26 -7 -45 6 -17 11 -29 14 -36 7 -11 -11 -56 -5
-65 8 -3 5 -14 9 -25 9 -11 0 -17 -4 -14 -10 3 -5 2 -10 -4 -10 -5 0 -11 4
-13 9 -1 5 -26 11 -55 13 l-51 4 -1 -100z"/>
<path d="M2730 1726 c0 -13 -10 -33 -66 -136 -8 -14 -14 -22 -14 -18 0 8 -27
-12 -62 -45 -15 -14 -17 -26 -12 -65 6 -46 5 -48 -45 -99 -28 -28 -46 -53 -39
-55 8 -3 5 -22 -8 -64 -12 -37 -17 -71 -13 -86 8 -29 1 -78 -11 -78 -5 0 -23
-16 -41 -35 -19 -19 -39 -35 -45 -35 -7 0 -11 -8 -10 -17 1 -12 -7 -19 -22
-21 -19 -3 -21 -6 -11 -18 9 -11 7 -15 -7 -21 -26 -10 -64 -45 -59 -53 3 -4
-2 -13 -10 -20 -12 -10 -15 -10 -15 0 0 8 -3 11 -6 8 -3 -3 0 -15 7 -26 11
-18 8 -25 -34 -67 -26 -25 -47 -50 -47 -55 0 -6 -4 -10 -10 -10 -5 0 -10 -6
-10 -14 0 -7 -11 -21 -25 -30 -14 -9 -25 -23 -25 -31 0 -9 -11 -21 -25 -27
-14 -6 -25 -17 -25 -25 0 -7 -8 -16 -17 -20 -10 -3 -26 -13 -35 -20 -9 -8 -22
-12 -27 -8 -6 3 -11 2 -11 -3 0 -14 -45 -24 -123 -27 -37 -2 -74 -8 -81 -15
-8 -6 -26 -8 -40 -4 -14 3 -26 4 -26 1 0 -3 33 -39 74 -81 74 -74 173 -203
164 -212 -3 -2 -17 13 -31 35 -42 63 -141 164 -206 210 -77 53 -79 47 -4 -10
54 -42 188 -188 179 -196 -2 -2 -37 28 -77 67 -61 59 -156 131 -216 164 -29
16 -10 -3 28 -28 85 -57 182 -161 226 -244 39 -72 41 -80 21 -74 -16 4 -19 2
-13 -8 5 -9 4 -11 -4 -6 -6 4 -9 12 -6 17 4 5 1 9 -5 9 -7 0 -38 20 -70 44
-130 99 -351 226 -445 256 -22 7 -43 15 -48 17 -15 8 14 43 37 43 16 0 29 12
45 40 12 22 27 40 32 40 6 0 7 5 4 10 -13 22 -46 10 -57 -20 -9 -28 -61 -67
-81 -62 -4 1 -6 -3 -5 -9 7 -27 -38 -14 -95 29 -78 59 -142 99 -232 142 -38
18 -78 37 -87 42 -10 4 -22 8 -28 8 -6 0 -27 11 -48 24 -21 13 -82 38 -137 56
-55 18 -114 39 -132 47 -17 7 -47 13 -67 13 -30 0 -37 4 -42 25 -7 30 -49 55
-96 56 -25 1 -19 4 22 11 30 5 82 7 115 4 203 -18 251 -18 267 -2 18 17 43 22
33 6 -3 -5 -2 -10 4 -10 16 0 71 58 71 74 0 8 16 27 35 42 l36 27 15 -22 c15
-21 17 -21 29 -4 7 10 17 15 20 11 4 -4 16 -3 26 3 15 8 17 13 7 28 -6 11 -18
17 -26 13 -12 -4 -14 1 -8 24 4 16 12 31 17 32 5 2 6 9 3 14 -4 6 -2 8 4 4 6
-3 22 5 35 18 17 17 32 23 46 19 26 -7 27 5 4 23 -17 12 -16 14 7 31 13 9 32
18 42 18 10 1 21 5 25 10 5 4 0 5 -9 2 -10 -4 -18 -2 -18 4 0 6 9 13 20 16 11
3 17 9 14 14 -3 5 -1 9 4 9 13 0 57 59 66 87 7 21 5 23 -34 21 -23 -1 -48 -8
-56 -15 -7 -8 -23 -16 -35 -18 -12 -3 -29 -11 -39 -20 -9 -8 -22 -15 -28 -15
-7 0 -12 -4 -12 -10 0 -5 -6 -7 -14 -4 -21 8 -56 -14 -56 -34 0 -13 -2 -14 -9
-4 -6 11 -12 10 -25 -4 -15 -14 -19 -15 -27 -3 -8 13 -13 6 -10 -13 1 -9 2 -9
-54 -14 -26 -2 -46 -11 -57 -25 -10 -11 -29 -22 -43 -23 -14 0 -25 -4 -25 -8
0 -5 -6 -8 -14 -8 -7 0 -25 -9 -38 -20 -14 -10 -28 -17 -31 -13 -3 3 -18 2
-33 -1 -19 -5 -25 -12 -21 -25 3 -14 -1 -16 -24 -13 -20 3 -31 -1 -35 -12 -3
-9 -17 -16 -30 -16 -13 0 -24 -4 -24 -9 0 -5 -10 -7 -21 -4 -14 4 -26 0 -35
-11 -8 -11 -14 -13 -19 -7 -8 14 -25 14 -25 1 0 -6 -14 -24 -30 -40 -17 -16
-30 -25 -30 -20 0 5 12 20 27 34 l27 25 -28 -3 c-28 -3 -62 -26 -37 -26 7 0 9
-5 5 -11 -4 -8 -8 -8 -13 0 -11 17 -50 2 -44 -17 4 -14 2 -14 -10 1 -15 18
-17 18 -56 -3 -23 -11 -41 -26 -41 -32 0 -7 -7 -3 -16 8 -8 10 -13 13 -9 7 4
-9 -1 -13 -14 -13 -21 0 -21 -2 -21 -510 l0 -510 1223 0 1222 0 54 35 c29 19
55 35 58 35 3 0 3 -13 1 -30 -5 -32 6 -40 50 -40 20 1 36 12 62 47 21 28 36
40 39 32 2 -7 14 -22 25 -32 17 -15 18 -18 4 -13 -10 3 -18 3 -18 -1 0 -18 42
-32 97 -33 58 0 63 2 76 28 8 15 17 39 21 54 3 15 19 35 36 45 17 9 30 20 30
24 0 12 49 27 106 33 l59 5 -63 -13 c-34 -7 -64 -15 -66 -17 -3 -2 21 -4 51
-5 33 0 48 3 37 7 -17 7 -17 8 3 8 12 1 25 -3 28 -9 11 -18 24 -11 23 12 -4
61 2 90 16 85 33 -13 53 60 33 119 -15 40 -67 125 -67 107 0 -5 13 -34 30 -64
16 -30 30 -65 30 -79 0 -77 -52 -41 -55 38 -1 26 -9 63 -18 82 l-17 35 5 -37
c9 -57 -9 -46 -30 20 -24 72 -22 65 -24 107 -1 22 -6 35 -15 35 -7 0 -17 15
-20 33 -4 17 -18 86 -32 152 -13 66 -33 149 -45 184 -11 35 -18 65 -17 67 2 2
15 -17 28 -41 20 -36 30 -45 52 -45 30 0 48 24 48 62 0 13 5 29 11 35 7 7 8
17 1 30 -7 13 -6 26 3 43 12 22 13 22 18 4 2 -10 5 10 6 46 0 59 -1 63 -14 46
-8 -11 -15 -14 -15 -8 0 7 -4 12 -10 12 -15 0 -12 -19 6 -37 9 -9 12 -22 8
-32 -4 -9 -12 -36 -19 -61 -9 -34 -18 -46 -36 -50 l-24 -6 28 -7 c38 -10 35
-33 -5 -32 -28 0 -33 4 -33 25 0 14 -4 31 -9 39 -7 11 -4 13 17 7 31 -8 39 3
47 66 5 37 3 48 -7 48 -9 0 -11 5 -7 12 11 17 12 48 2 42 -4 -3 -8 7 -8 23 0
41 -13 58 -36 45 -15 -9 -22 -6 -32 11 -12 21 -13 20 -6 -8 4 -16 8 -38 8 -47
1 -10 5 -21 9 -24 4 -4 7 -14 7 -23 0 -26 -22 4 -26 36 -6 49 -18 73 -33 64
-11 -7 -9 -17 8 -56 12 -26 21 -50 21 -53 0 -14 -40 48 -45 71 -4 14 -15 29
-24 32 -10 3 -18 11 -18 18 -7 102 -19 168 -38 206 -13 25 -34 79 -46 119 -22
67 -39 92 -39 58z"/>
<path d="M1141 1283 c3 -21 -3 -33 -16 -33 -24 0 -31 -31 -10 -46 23 -17 10
-32 -14 -17 -22 13 -31 8 -31 -19 0 -25 -14 -22 -30 6 -15 28 -33 38 -55 30
-24 -10 -19 -44 7 -44 12 0 18 -3 15 -7 -4 -3 0 -14 8 -23 14 -15 13 -19 -9
-42 -28 -28 -49 -75 -40 -90 3 -5 12 -1 20 11 12 17 23 19 74 16 33 -2 60 1
60 6 0 5 -4 9 -10 9 -5 0 -10 5 -10 10 0 6 7 10 15 10 8 0 15 -4 15 -10 0 -5
4 -10 10 -10 5 0 7 7 4 15 -4 10 0 15 11 15 12 0 16 -6 12 -19 -3 -12 1 -21
12 -24 9 -3 24 -8 33 -12 13 -5 15 -2 11 14 -6 23 -23 29 -23 9 0 -7 -7 0 -15
16 -8 15 -15 30 -15 32 0 5 52 -3 73 -11 9 -4 17 -3 17 2 0 5 -12 14 -27 20
-26 10 -26 11 -5 12 16 1 22 7 22 24 0 13 5 28 11 34 9 9 2 13 -25 19 -29 5
-36 10 -31 22 3 9 3 13 -1 9 -4 -4 -15 11 -25 33 -10 22 -23 40 -29 40 -5 0
-9 -3 -9 -7z"/>
</g>
</svg>
