<?xml version="1.0" standalone="no"?>
<!DOCTYPE svg PUBLIC "-//W3C//DTD SVG 20010904//EN"
 "http://www.w3.org/TR/2001/REC-SVG-20010904/DTD/svg10.dtd">
<svg version="1.0" xmlns="http://www.w3.org/2000/svg"
 width="300.000000pt" height="250.000000pt" viewBox="0 0 300.000000 250.000000"
 preserveAspectRatio="xMidYMid meet">
<metadata>
Created by potrace 1.14, written by Peter Selinger 2001-2017
</metadata>
<g transform="translate(0.000000,250.000000) scale(0.100000,-0.100000)"
fill="#000000" stroke="none">
<path d="M635 1595 c-16 -7 -42 -26 -58 -42 -27 -29 -27 -30 -7 -48 15 -13 20
-31 20 -65 0 -59 -18 -76 -85 -83 -81 -9 -143 -23 -159 -37 -19 -15 -21 -81
-4 -98 14 -14 106 -16 128 -2 11 7 24 0 52 -27 l36 -35 -19 -32 c-10 -17 -19
-39 -19 -49 0 -10 -12 -41 -26 -69 -22 -44 -26 -61 -22 -124 3 -57 8 -79 26
-101 12 -15 31 -46 41 -69 11 -23 34 -50 53 -62 52 -33 68 -56 62 -94 l-6 -33
-72 3 c-68 4 -75 2 -122 -29 -27 -18 -98 -83 -159 -144 -126 -126 -155 -181
-155 -294 l0 -61 405 0 c353 0 405 2 405 15 0 11 -11 15 -38 15 -34 0 -41 4
-57 34 -16 29 -17 37 -6 50 12 14 9 18 -20 30 -64 27 -121 98 -133 167 -4 21
-15 48 -25 60 -24 33 -42 86 -34 107 10 26 53 63 71 60 9 -2 20 -18 24 -36 7
-26 18 -38 51 -52 67 -31 101 -27 239 28 17 7 30 23 38 46 10 31 9 39 -11 65
-12 16 -18 34 -15 39 4 6 29 25 56 43 75 49 91 96 87 272 l-2 138 -56 54 c-56
54 -56 54 -46 94 9 34 15 40 45 45 67 10 90 62 57 126 -14 28 -20 30 -71 30
-30 0 -64 -5 -75 -11 -31 -16 -61 15 -58 61 4 71 -5 82 -101 117 -45 16 -196
15 -235 -2z"/>
<path d="M2082 738 c-7 -7 -12 -30 -12 -51 0 -36 2 -39 23 -32 78 24 137 28
272 16 77 -7 204 -14 283 -17 l142 -4 0 35 c0 19 -4 35 -10 35 -5 0 -10 -10
-10 -23 0 -23 -2 -23 -82 -21 -46 2 -123 8 -173 14 -49 6 -115 12 -145 14 -30
1 5 3 78 4 77 1 132 6 132 12 0 5 44 11 98 13 53 1 -50 4 -230 5 -179 1 -332
4 -340 7 -7 3 -19 0 -26 -7z"/>
<path d="M2080 519 l0 -61 28 7 c15 4 133 9 262 12 129 2 245 6 258 8 37 9 15
25 -34 25 -24 0 -44 5 -44 10 0 6 53 10 140 10 87 0 140 4 140 10 0 6 -57 11
-147 12 l-148 2 115 6 c79 4 22 7 -185 8 -244 1 -305 -1 -325 -13 -34 -19 -40
-18 -40 5 0 11 -4 20 -10 20 -6 0 -10 -27 -10 -61z"/>
<path d="M1110 501 c0 -44 -156 -121 -244 -121 -59 0 -119 21 -153 53 -21 18
-23 19 -23 3 0 -9 11 -32 25 -51 14 -18 29 -50 32 -72 10 -67 62 -119 136
-137 25 -6 27 -4 27 28 0 22 7 40 18 48 10 7 21 21 25 31 9 24 30 22 22 -3 -5
-16 -2 -20 14 -20 12 0 21 7 21 15 0 8 5 15 10 15 6 0 10 -25 10 -55 0 -74 13
-72 83 16 33 41 37 53 43 127 7 86 15 102 39 82 36 -30 4 -191 -48 -247 -44
-49 -48 -52 -85 -74 -28 -16 -31 -21 -20 -38 9 -15 9 -25 0 -46 -26 -57 -36
-55 259 -55 l271 0 -5 23 c-15 63 -61 178 -112 281 -38 76 -45 84 -119 134
-58 38 -88 52 -115 52 -20 0 -45 7 -55 15 -28 21 -56 19 -56 -4z"/>
<path d="M2475 389 c-214 -7 -285 -14 -285 -30 0 -5 19 -10 43 -10 23 -1 34
-3 25 -6 -31 -8 -19 -23 17 -23 19 0 35 -4 35 -10 0 -6 45 -10 115 -10 70 0
115 4 115 10 0 6 -15 10 -32 11 -18 1 -44 5 -58 9 -14 5 36 6 118 3 100 -4
142 -3 142 5 0 6 -19 17 -42 24 l-43 12 47 6 c48 6 81 22 37 18 -13 -1 -118
-5 -234 -9z"/>
</g>
</svg>
