<?xml version="1.0" standalone="no"?>
<!DOCTYPE svg PUBLIC "-//W3C//DTD SVG 20010904//EN"
 "http://www.w3.org/TR/2001/REC-SVG-20010904/DTD/svg10.dtd">
<svg version="1.0" xmlns="http://www.w3.org/2000/svg"
 width="480.000000pt" height="598.000000pt" viewBox="0 0 480.000000 598.000000"
 preserveAspectRatio="xMidYMid meet">
<metadata>
Created by potrace 1.14, written by Peter Selinger 2001-2017
</metadata>
<g transform="translate(0.000000,598.000000) scale(0.100000,-0.100000)"
fill="#000000" stroke="none">
<path d="M2408 5497 c-24 -18 -48 -47 -53 -64 l-10 -31 -26 22 c-14 11 -29 29
-32 39 -8 20 -27 23 -27 3 0 -17 -59 -29 -104 -21 -32 7 -36 4 -60 -37 -30
-52 -32 -74 -9 -100 14 -16 15 -21 4 -28 -9 -5 -11 -17 -7 -33 6 -27 -15 -44
-37 -30 -7 4 -50 9 -96 10 -77 1 -85 0 -106 -23 -12 -13 -27 -24 -34 -24 -21
0 0 54 32 84 28 27 34 28 94 23 45 -3 63 -1 60 7 -6 18 -81 53 -97 46 -46 -22
-92 -40 -103 -40 -18 0 -73 -60 -82 -90 -4 -14 -19 -35 -32 -48 -19 -18 -23
-29 -18 -49 3 -15 10 -46 15 -71 7 -40 6 -45 -12 -50 -18 -4 -18 -6 9 -28 33
-26 26 -43 -9 -20 -23 15 -88 16 -120 2 -25 -11 -30 -34 -12 -62 20 -30 15
-37 -33 -38 -33 -1 -38 -4 -37 -24 1 -26 -41 -61 -55 -46 -6 6 8 143 18 181 1
1 16 16 34 32 20 19 26 31 17 31 -19 -1 -52 -28 -72 -60 -24 -37 -44 -176 -29
-194 8 -9 10 -28 5 -50 -8 -43 0 -79 23 -101 13 -14 14 -20 5 -34 -7 -9 -19
-29 -27 -46 -14 -30 -14 -30 -15 -5 0 14 7 36 16 49 11 15 13 26 6 33 -16 16
-55 -49 -60 -103 -2 -27 -9 -49 -14 -49 -5 0 -16 -16 -24 -36 -14 -33 -13 -38
7 -71 l22 -35 18 23 c10 13 19 27 19 32 0 12 20 8 36 -7 18 -19 2 -51 -55
-106 -37 -36 -42 -46 -39 -78 3 -32 7 -37 30 -40 24 -3 29 -9 34 -43 5 -27 15
-46 31 -56 16 -11 22 -22 18 -34 -8 -25 21 -78 50 -91 22 -10 25 -18 25 -60 0
-45 2 -49 35 -65 19 -9 35 -20 35 -25 0 -4 9 -8 20 -8 11 0 20 7 20 15 0 24
17 18 40 -14 l21 -30 -34 6 c-40 6 -43 2 -62 -69 -15 -61 -4 -100 30 -106 32
-6 85 -51 85 -73 0 -10 -4 -19 -10 -19 -5 0 -65 -37 -132 -83 -113 -76 -171
-110 -393 -227 -44 -23 -96 -53 -115 -65 -19 -13 -58 -36 -86 -51 -27 -16 -74
-56 -103 -89 -29 -33 -80 -88 -112 -122 -73 -77 -95 -119 -109 -208 -6 -38
-16 -83 -21 -100 -24 -83 -32 -206 -34 -590 -1 -354 -4 -419 -19 -478 -14 -52
-17 -89 -12 -155 17 -235 18 -285 5 -405 -9 -92 -16 -130 -26 -134 -8 -3 -27
-33 -42 -67 -27 -60 -37 -96 -81 -301 -29 -133 -46 -185 -92 -279 -62 -129
-106 -116 401 -116 l439 0 15 32 c64 136 67 146 73 250 7 113 48 268 66 250 5
-5 14 -68 19 -138 5 -71 13 -148 18 -171 6 -29 4 -50 -4 -65 -37 -71 -54 -106
-59 -130 l-6 -28 1276 0 1277 0 -8 52 c-4 29 -6 131 -5 227 2 123 -1 176 -10
181 -7 5 -3 13 15 24 27 18 74 64 106 105 18 23 20 23 38 7 17 -16 20 -16 36
0 28 29 36 64 45 199 4 72 13 144 20 160 15 34 22 385 8 385 -4 0 -8 -28 -9
-62 0 -35 -4 -72 -8 -83 -4 -11 -7 147 -7 350 1 366 -9 604 -25 637 -5 9 -14
74 -20 144 -8 96 -18 149 -41 213 -51 145 -68 166 -238 306 -67 55 -94 79
-205 180 -22 20 -92 72 -155 115 -63 43 -124 88 -136 98 -29 27 -63 44 -74 37
-6 -4 -28 11 -50 32 -38 37 -39 39 -49 140 -5 56 -6 114 -2 129 6 23 8 25 20
10 18 -22 94 -22 112 0 12 15 10 16 -19 10 -21 -5 -32 -4 -32 3 0 6 5 11 10
11 6 0 10 5 10 10 0 6 -7 10 -15 10 -8 0 -15 5 -15 10 0 6 23 10 51 10 56 0
119 24 119 46 0 10 -6 11 -26 3 -34 -12 -42 -4 -21 19 14 15 15 27 8 65 -4 26
-15 54 -22 63 -12 15 -11 16 8 10 18 -6 21 -4 16 15 -5 19 -4 20 16 7 12 -7
24 -23 27 -35 4 -13 10 -23 15 -23 14 0 10 44 -6 66 -21 28 -18 40 15 54 55
23 73 46 73 93 -1 36 5 50 33 81 44 48 51 61 59 119 5 31 4 47 -4 47 -14 0
-31 -33 -31 -62 0 -18 -8 -27 -36 -37 -19 -7 -38 -19 -41 -27 -8 -21 -31 -17
-38 7 -9 29 2 36 20 13 8 -10 15 -14 15 -7 0 6 -5 15 -10 18 -16 10 -1 76 26
112 29 38 44 95 24 91 -14 -3 -80 115 -80 143 0 25 31 82 58 105 22 20 24 28
20 84 -4 51 -1 64 13 73 16 10 16 13 -7 34 -33 31 -37 29 -30 -11 7 -38 -3
-46 -59 -46 -65 0 -87 62 -39 113 21 23 24 34 19 59 -4 18 -16 39 -26 47 -13
11 -22 38 -28 84 -5 38 -17 80 -27 94 l-16 26 31 -6 c17 -4 31 -2 31 3 0 17
-42 32 -74 26 -27 -5 -36 -1 -71 35 -48 50 -111 79 -171 79 -40 0 -44 2 -44
24 0 30 -14 40 -72 55 -44 10 -51 9 -94 -15 l-46 -26 -19 21 c-11 12 -31 21
-44 21 -21 0 -25 5 -25 29 0 50 -59 91 -130 91 -10 0 -38 -15 -62 -33z m683
-264 c3 -10 13 -35 22 -56 37 -81 30 -137 -17 -137 -27 0 -36 17 -36 63 0 68
-36 117 -85 117 -8 0 -15 5 -15 10 0 6 -7 10 -15 10 -22 0 -19 27 4 33 21 5
54 -10 46 -23 -3 -4 9 -13 25 -19 l31 -10 -31 30 c-16 17 -28 35 -24 40 8 13
88 -36 95 -58z m-247 -718 c60 -35 88 -100 74 -172 -14 -68 -4 -116 32 -157
17 -19 30 -42 30 -52 0 -14 -2 -16 -9 -6 -12 20 -22 -69 -12 -105 5 -17 14
-40 21 -52 17 -33 20 -228 3 -275 -7 -21 -30 -64 -52 -95 -21 -31 -51 -93 -66
-136 -15 -44 -31 -85 -36 -91 -4 -5 -5 -21 -2 -33 4 -17 2 -22 -7 -19 -8 2
-22 33 -32 68 -20 71 -54 121 -42 62 4 -21 3 -32 -5 -32 -6 0 -11 4 -11 8 0
13 -102 42 -144 42 -31 0 -37 3 -32 16 14 37 18 64 8 64 -5 0 -12 -11 -16 -23
-8 -32 -117 -97 -163 -97 -25 0 -42 9 -69 35 -20 20 -45 35 -58 35 -33 0 -47
21 -40 59 9 42 21 47 43 20 18 -23 41 -19 41 7 0 8 5 14 10 14 6 0 10 -6 9
-12 -3 -26 1 -51 8 -44 4 3 10 81 14 172 4 97 12 171 18 177 20 20 12 25 -54
32 -36 3 -67 11 -70 16 -4 5 -18 9 -33 9 -15 0 -59 9 -97 19 -39 11 -92 22
-120 26 -114 14 -113 14 -107 38 16 63 54 87 101 63 62 -33 164 -14 217 39 19
19 29 23 39 15 7 -6 33 -11 57 -12 50 -2 87 17 114 57 14 21 14 28 3 42 -13
15 -11 16 11 9 86 -27 109 -20 207 61 37 31 54 53 58 77 5 26 15 36 46 50 47
21 73 56 64 86 -8 26 -3 25 49 -5z m-290 -81 c9 -8 16 -24 16 -35 0 -10 3 -19
8 -19 13 0 5 -62 -10 -71 -24 -14 -88 2 -103 25 -38 59 41 148 89 100z m-687
-457 c4 -7 21 -18 37 -25 23 -10 26 -15 16 -27 -10 -12 -9 -15 8 -15 27 0 36
-15 17 -30 -12 -10 -12 -17 5 -51 16 -31 26 -39 48 -39 15 -1 38 -7 52 -14 45
-25 134 -2 168 44 20 26 20 30 6 44 -8 9 -12 20 -9 26 10 16 23 12 30 -9 3
-11 16 -21 28 -23 27 -4 31 -23 22 -105 -6 -61 -10 -68 -55 -111 -44 -42 -49
-52 -52 -97 l-3 -50 -52 -3 c-29 -2 -53 -7 -53 -11 0 -13 -47 -30 -68 -24 -16
4 -21 -1 -24 -19 -2 -12 -10 -23 -18 -23 -11 0 -14 9 -12 35 4 41 -18 180 -28
180 -4 0 -5 -34 -2 -75 4 -70 3 -75 -16 -75 -19 0 -42 41 -42 77 0 8 -11 38
-24 66 -13 29 -29 83 -35 122 -12 65 -11 71 7 86 14 11 20 27 19 55 -2 86 10
123 30 91z m-77 -363 c0 -8 4 -13 9 -10 5 3 11 -10 13 -30 3 -25 -1 -38 -11
-44 -14 -8 -14 -11 -1 -19 11 -8 14 -30 13 -97 -1 -47 -4 -89 -8 -92 -3 -3
-13 13 -22 37 -11 29 -19 38 -25 29 -9 -14 -10 -4 -12 133 -1 59 3 91 13 102
15 19 31 14 31 -9z m1215 -232 c-1 -30 -8 -59 -14 -65 -8 -8 -11 -7 -11 6 0
27 -26 20 -53 -15 l-25 -32 5 65 c3 37 11 69 19 75 8 6 14 20 14 32 0 27 10
52 21 52 5 0 9 -8 9 -17 0 -13 3 -14 12 -5 9 9 9 17 0 34 -13 25 -11 66 4 89
10 16 24 -134 19 -219z m-405 -107 c0 -8 -6 -20 -12 -27 -24 -25 -58 -77 -58
-88 0 -20 -18 -9 -24 15 -7 26 -26 35 -26 12 0 -8 -7 -14 -15 -14 -13 0 -13 2
0 17 8 9 15 20 15 23 0 4 -37 7 -82 7 -99 0 -158 14 -158 37 0 9 -9 26 -20 38
l-20 21 123 -4 c67 -2 149 1 182 6 53 8 62 7 78 -11 9 -10 17 -25 17 -32z
m-520 -135 c0 -30 28 -49 41 -29 4 7 10 -6 14 -30 4 -22 11 -41 16 -41 5 0 9
-11 9 -25 0 -16 6 -25 15 -25 8 0 15 7 15 15 0 8 3 15 6 15 17 0 33 -39 34
-77 0 -37 -3 -43 -20 -43 -25 0 -90 41 -90 57 0 6 -10 13 -22 15 -12 2 -27 12
-33 24 -5 11 -18 28 -28 38 -21 22 -22 72 -2 121 13 30 18 35 30 25 8 -7 15
-25 15 -40z m550 26 c0 -14 -4 -28 -10 -31 -19 -12 -11 -26 8 -16 31 16 57 7
60 -22 2 -20 -1 -27 -14 -27 -13 0 -16 -7 -11 -33 8 -49 -10 -71 -18 -24 -7
35 -25 43 -25 11 0 -24 -42 -74 -63 -74 -21 0 -70 -47 -62 -59 7 -12 -22 -47
-31 -38 -4 4 -2 17 4 30 22 43 34 109 23 120 -8 8 -11 6 -11 -6 0 -26 -24 -97
-32 -97 -5 0 -8 10 -9 23 -1 20 -2 20 -12 -5 -16 -42 -24 -34 -31 30 -12 110
5 172 46 172 9 0 -20 -50 -35 -61 -9 -6 34 -109 46 -109 11 0 9 58 -3 65 -20
12 -9 40 24 68 40 31 48 33 44 11 -2 -10 3 -19 10 -21 8 -3 12 6 12 26 0 26 5
32 33 39 22 6 33 15 35 30 5 30 22 28 22 -2z m-636 -186 c6 -34 39 -55 62 -42
13 7 25 0 50 -28 39 -43 110 -72 222 -89 97 -15 127 -14 142 4 7 8 21 15 31
15 21 0 79 32 133 74 30 23 42 27 55 19 47 -30 -33 -178 -156 -288 -42 -39
-104 -96 -136 -127 -32 -32 -63 -58 -70 -58 -14 0 -77 -57 -77 -70 0 -24 24
-70 37 -70 9 0 13 -6 9 -15 -3 -9 0 -15 9 -15 10 0 15 -10 15 -28 0 -30 16
-52 37 -52 22 0 94 -82 88 -99 -3 -8 0 -18 7 -23 8 -5 0 -8 -22 -8 -19 0 -103
-2 -186 -6 -108 -4 -158 -2 -174 6 -12 6 -19 14 -16 17 3 3 -9 15 -27 27 -26
18 -33 29 -35 64 -3 35 3 49 37 94 45 60 88 96 144 123 43 20 44 29 17 116
-24 78 -77 170 -131 225 -22 22 -36 43 -33 47 4 4 1 13 -6 22 -17 20 -5 32 15
15 25 -21 17 5 -10 30 -14 13 -24 29 -21 35 2 6 -4 29 -14 50 l-18 38 4 -67
c2 -47 8 -74 20 -87 22 -24 10 -38 -14 -16 -15 14 -19 33 -19 111 -1 73 2 94
12 90 7 -3 15 -18 19 -34z m-352 -827 c26 -30 37 -81 54 -248 9 -88 23 -178
31 -200 22 -60 32 -106 33 -142 0 -18 5 -33 10 -33 6 0 10 10 10 23 0 17 17
33 65 65 56 37 74 43 149 51 47 6 107 19 133 30 26 11 65 22 86 26 38 6 38 6
34 -25 -12 -76 48 -164 120 -176 35 -5 41 -2 71 30 44 49 49 67 40 145 -4 36
-6 72 -3 78 7 20 203 8 340 -21 66 -14 145 -26 176 -26 31 0 58 -3 62 -6 3 -3
-3 -16 -14 -27 -20 -22 -23 -62 -4 -62 6 0 11 10 13 22 2 12 21 37 43 54 l41
32 107 -6 c160 -8 291 -67 291 -130 0 -28 -27 -37 -114 -37 -29 0 -70 -9 -95
-20 -47 -22 -201 -29 -201 -10 0 6 -7 10 -15 10 -8 0 -15 -4 -15 -9 0 -5 -12
-12 -27 -16 -16 -3 -35 -13 -44 -21 -26 -23 -155 -47 -178 -32 -16 10 -29 0
-109 -83 l-91 -94 -1 35 c0 32 -1 33 -16 18 -24 -23 -20 -116 7 -175 22 -49
26 -84 14 -149 -6 -34 -13 -44 -41 -58 -45 -21 -79 -20 -131 3 -39 18 -42 18
-46 3 -3 -12 -8 -8 -18 16 -7 17 -17 32 -21 32 -4 0 -8 18 -8 39 0 27 8 49 25
69 38 46 29 75 -10 32 -21 -23 -35 -26 -35 -7 0 36 -25 91 -56 123 -19 20 -37
34 -40 31 -6 -6 13 -75 26 -92 5 -5 10 -25 12 -44 3 -30 -1 -35 -22 -41 -14
-4 -39 -14 -55 -22 -27 -14 -41 -14 -120 -2 -116 17 -194 17 -225 -1 -53 -30
-87 -11 -133 73 -12 23 -49 78 -82 123 -33 44 -63 86 -66 93 -15 26 -44 101
-41 108 1 5 -4 7 -10 6 -17 -4 -14 60 4 77 7 7 23 16 36 20 20 6 32 -2 77 -52
29 -32 72 -83 97 -113 24 -30 63 -69 87 -87 40 -31 47 -33 126 -33 45 0 97 -3
114 -6 24 -5 31 -3 31 10 0 14 -14 16 -96 16 -84 0 -101 3 -137 25 -49 29 -82
59 -117 106 -14 18 -41 52 -60 74 -20 22 -69 106 -110 187 l-74 147 18 138
c10 76 21 141 23 146 8 14 60 7 75 -10z m696 -126 c2 -19 -5 -40 -23 -63 l-26
-34 43 6 c24 4 51 11 60 15 9 5 24 9 33 9 14 0 12 -4 -6 -20 -23 -19 -23 -21
-6 -34 9 -7 17 -27 17 -44 0 -17 5 -43 11 -59 6 -15 12 -55 14 -88 3 -55 1
-62 -21 -72 -14 -7 -24 -7 -24 -1 0 5 -4 7 -9 3 -5 -3 -12 -1 -16 5 -3 5 -1
10 5 10 7 0 5 7 -4 16 -9 8 -17 24 -17 35 -1 10 -2 22 -3 27 -1 4 -5 24 -9 44
-7 36 -10 38 -42 35 -24 -1 -35 -8 -39 -22 -3 -10 -8 -17 -11 -13 -3 3 -1 17
5 32 13 35 13 106 0 106 -5 0 -1 23 10 50 11 28 20 60 20 71 0 32 34 20 38
-14z m-867 -144 c28 -25 58 -72 94 -144 l53 -107 -32 -6 c-33 -6 -50 -21 -74
-64 -10 -19 -8 -33 20 -100 17 -42 52 -102 78 -132 76 -92 77 -93 59 -89 -24
6 -165 197 -195 265 -35 78 -63 181 -53 191 10 10 -43 152 -61 163 -8 5 -10
17 -6 34 5 22 12 26 41 26 26 0 45 -9 76 -37z m1339 -507 c0 -13 7 -29 15 -36
8 -7 15 -18 15 -26 0 -20 -42 -87 -68 -108 -13 -10 -35 -37 -49 -59 -23 -37
-26 -39 -36 -22 -6 11 -10 39 -10 64 0 30 -3 38 -8 26 -6 -18 -8 -18 -14 -3
-4 9 -2 24 3 34 13 23 135 153 145 153 4 1 7 -10 7 -23z m155 -53 c15 -16 31
-37 37 -48 l11 -20 -24 20 c-13 11 -27 23 -30 28 -8 11 -40 -58 -44 -98 -1
-11 8 -36 21 -55 20 -29 24 -47 24 -112 0 -67 -2 -77 -19 -83 -22 -7 -70 3
-88 17 -7 6 -28 10 -47 11 -22 1 -32 5 -28 11 3 6 -10 -1 -29 -15 -40 -31 -79
-45 -79 -30 0 6 7 11 15 11 32 0 82 62 134 164 29 59 61 111 71 116 23 12 34
55 20 79 -7 14 -6 21 3 24 21 9 26 8 52 -20z m172 -335 c6 -24 17 -80 23 -125
9 -58 16 -83 26 -83 10 0 14 -15 15 -52 0 -29 4 -78 8 -108 9 -58 6 -74 -10
-50 -7 12 -10 10 -16 -9 -5 -21 -10 -14 -28 42 -12 37 -24 70 -28 73 -4 4 -7
19 -7 33 0 14 -7 35 -15 45 -19 25 -19 73 1 149 9 34 14 76 12 94 -6 47 6 41
19 -9z"/>
<path d="M2815 4019 c-84 -11 -129 -25 -145 -45 -8 -9 -31 -14 -65 -14 -32 0
-57 -5 -64 -14 -6 -7 -21 -11 -34 -9 -36 7 -66 -25 -60 -64 7 -41 23 -43 23
-4 0 23 5 30 27 34 34 6 56 -2 49 -19 -3 -8 3 -20 14 -26 11 -7 20 -18 20 -23
0 -14 62 -41 112 -50 26 -5 51 -2 80 10 42 16 97 68 98 92 0 13 -33 20 -99 23
-89 2 -78 24 21 40 70 12 156 38 131 39 -7 1 -13 10 -13 21 0 11 -6 19 -12 19
-7 -1 -44 -6 -83 -10z"/>
<path d="M653 4090 c-23 -10 -46 -69 -36 -98 12 -40 27 -61 45 -66 51 -13 98
39 98 108 0 54 -48 80 -107 56z"/>
<path d="M3762 4075 c-26 -30 -29 -81 -6 -113 17 -25 74 -31 92 -9 20 24 24
75 8 105 -25 49 -61 55 -94 17z"/>
<path d="M4167 4080 c-55 -43 -39 -140 22 -140 63 0 98 66 61 113 -34 43 -54
50 -83 27z"/>
<path d="M857 4083 c-17 -4 -18 -12 -12 -76 4 -40 12 -78 17 -84 25 -31 142
75 122 109 -29 52 -66 67 -127 51z"/>
<path d="M3950 290 c-11 -21 -25 -62 -31 -91 -13 -59 -23 -55 -40 16 -6 28
-13 56 -15 63 -2 6 -8 12 -14 12 -10 0 -14 -52 -11 -175 2 -82 8 -108 24 -102
8 2 11 23 8 57 -2 36 0 50 8 46 6 -4 11 -13 11 -21 0 -7 7 -16 15 -19 19 -7
30 18 40 91 11 83 24 72 24 -19 0 -46 3 -90 6 -99 12 -31 125 -40 163 -13 14
9 22 11 22 4 0 -7 15 -10 38 -8 52 4 51 35 -2 64 l-39 22 22 18 c24 21 27 34
8 34 -18 0 -49 -39 -45 -58 2 -9 18 -23 36 -31 17 -8 32 -18 32 -21 0 -4 -39
-7 -87 -6 l-88 1 -3 31 c-2 19 3 36 13 44 23 19 29 6 10 -23 -24 -37 -1 -43
25 -7 12 17 20 38 18 48 -4 23 -41 27 -72 6 l-26 -16 0 96 c0 78 -3 96 -15 96
-8 0 -24 -18 -35 -40z"/>
<path d="M4512 160 c-24 -23 -27 -35 -11 -46 7 -4 1 -15 -16 -30 -35 -30 -48
-23 -28 16 8 17 12 37 9 45 -8 21 -44 18 -58 -5 -12 -19 -13 -19 -35 2 -31 29
-43 15 -46 -52 -2 -57 11 -71 51 -55 9 4 36 7 60 6 24 -2 49 2 56 8 10 9 15 8
20 -4 9 -23 63 -20 71 5 9 30 -2 55 -30 68 -28 13 -32 27 -10 36 8 3 15 10 15
16 0 17 -25 11 -48 -10z"/>
</g>
</svg>
